M48
; DRILL file {KiCad (6.0.0)} date Sun May 21 00:13:48 2023
; FORMAT={-:-/ absolute / metric / decimal}
; #@! TF.CreationDate,2023-05-21T00:13:48-05:00
; #@! TF.GenerationSoftware,Kicad,Pcbnew,(6.0.0)
; #@! TF.FileFunction,Plated,1,2,PTH
FMAT,2
METRIC
; #@! TA.AperFunction,Plated,PTH,ViaDrill
T1C0.400
; #@! TA.AperFunction,Plated,PTH,ComponentDrill
T2C0.600
; #@! TA.AperFunction,Plated,PTH,ComponentDrill
T3C0.750
; #@! TA.AperFunction,Plated,PTH,ComponentDrill
T4C0.800
; #@! TA.AperFunction,Plated,PTH,ComponentDrill
T5C1.000
; #@! TA.AperFunction,Plated,PTH,ComponentDrill
T6C1.040
; #@! TA.AperFunction,Plated,PTH,ComponentDrill
T7C1.470
; #@! TA.AperFunction,Plated,PTH,ComponentDrill
T8C1.500
%
G90
G05
T1
X91.54Y-82.75
X91.55Y-81.24
X120.6Y-83.55
X189.8Y-104.3
X196.8Y-109.0
X202.2Y-84.1
X222.35Y-88.4
X224.05Y-108.0
X224.1Y-82.6
T3
X218.25Y-79.89
X218.67Y-49.97
X218.715Y-109.88
X225.87Y-79.89
X226.29Y-49.97
X226.335Y-109.88
X241.03Y-69.89
X241.03Y-88.45
X241.99Y-123.655
X241.99Y-131.275
X248.65Y-69.89
X248.65Y-88.45
X248.715Y-114.09
X256.335Y-114.09
T4
X92.616Y-77.479
X92.616Y-87.48
X105.316Y-77.479
X105.316Y-87.48
X138.56Y-87.74
X143.56Y-87.74
X147.46Y-52.12
X147.6Y-87.75
X160.16Y-52.12
X160.3Y-87.75
X165.135Y-80.326
X165.135Y-87.946
X167.675Y-80.326
X167.675Y-87.946
X169.41Y-76.83
X170.215Y-80.326
X170.215Y-87.946
X171.95Y-76.83
X172.755Y-80.326
X172.755Y-87.946
X174.49Y-76.83
X175.295Y-80.326
X175.295Y-87.946
X177.03Y-76.83
X177.835Y-80.326
X177.835Y-87.946
X179.57Y-76.83
X180.375Y-80.326
X180.375Y-87.946
X182.915Y-80.326
X182.915Y-87.946
X183.5Y-76.95
X185.455Y-80.326
X185.455Y-87.946
X187.995Y-80.326
X187.995Y-87.946
X188.5Y-76.95
X190.535Y-80.326
X190.535Y-87.946
X193.075Y-80.326
X193.075Y-87.946
X195.615Y-80.326
X195.615Y-87.946
X198.155Y-80.326
X198.155Y-87.946
X200.29Y-116.57
X203.781Y-86.051
X208.781Y-86.051
X212.99Y-116.57
X219.5Y-84.67
X220.34Y-55.54
X221.56Y-114.42
X232.2Y-84.67
X233.04Y-55.54
X234.26Y-114.42
T5
X166.32Y-52.06
X168.86Y-52.06
X171.4Y-52.06
X173.94Y-52.06
X176.48Y-52.06
X179.02Y-52.06
T6
X234.225Y-35.971
X234.225Y-38.511
X234.225Y-65.971
X234.225Y-68.511
X234.225Y-95.971
X234.225Y-98.511
X234.225Y-125.971
X234.225Y-128.511
T7
X224.065Y-34.701
X224.065Y-64.701
X224.065Y-94.701
X224.065Y-124.701
X226.605Y-41.051
X226.605Y-71.051
X226.605Y-101.051
X226.605Y-131.051
X254.065Y-60.651
X254.065Y-79.701
X254.065Y-98.751
X256.605Y-67.001
X256.605Y-86.051
X256.605Y-105.101
T8
X85.395Y-39.141
X85.395Y-69.141
X85.395Y-99.141
X85.395Y-129.141
X212.895Y-39.141
X212.895Y-42.941
X212.895Y-69.141
X212.895Y-72.941
X212.895Y-99.141
X212.895Y-102.941
X212.895Y-129.141
X212.895Y-132.941
T2
X85.215Y-77.921G85X84.615Y-77.921
G05
X85.215Y-86.561G85X84.615Y-86.561
G05
X89.645Y-77.921G85X88.545Y-77.921
G05
X89.645Y-86.561G85X88.545Y-86.561
G05
T0
M30
