%TF.GenerationSoftware,KiCad,Pcbnew,(6.0.0)*%
%TF.CreationDate,2023-05-21T00:13:47-05:00*%
%TF.ProjectId,micro-mixer-pcb,6d696372-6f2d-46d6-9978-65722d706362,rev?*%
%TF.SameCoordinates,Original*%
%TF.FileFunction,Legend,Top*%
%TF.FilePolarity,Positive*%
%FSLAX46Y46*%
G04 Gerber Fmt 4.6, Leading zero omitted, Abs format (unit mm)*
G04 Created by KiCad (PCBNEW (6.0.0)) date 2023-05-21 00:13:47*
%MOMM*%
%LPD*%
G01*
G04 APERTURE LIST*
%ADD10C,0.300000*%
%ADD11C,0.150000*%
%ADD12C,0.120000*%
G04 APERTURE END LIST*
D10*
X244931071Y-63354285D02*
X243431071Y-63354285D01*
X243431071Y-62997142D01*
X243502500Y-62782857D01*
X243645357Y-62640000D01*
X243788214Y-62568571D01*
X244073928Y-62497142D01*
X244288214Y-62497142D01*
X244573928Y-62568571D01*
X244716785Y-62640000D01*
X244859642Y-62782857D01*
X244931071Y-62997142D01*
X244931071Y-63354285D01*
X244859642Y-61282857D02*
X244931071Y-61425714D01*
X244931071Y-61711428D01*
X244859642Y-61854285D01*
X244716785Y-61925714D01*
X244145357Y-61925714D01*
X244002500Y-61854285D01*
X243931071Y-61711428D01*
X243931071Y-61425714D01*
X244002500Y-61282857D01*
X244145357Y-61211428D01*
X244288214Y-61211428D01*
X244431071Y-61925714D01*
X244859642Y-60640000D02*
X244931071Y-60497142D01*
X244931071Y-60211428D01*
X244859642Y-60068571D01*
X244716785Y-59997142D01*
X244645357Y-59997142D01*
X244502500Y-60068571D01*
X244431071Y-60211428D01*
X244431071Y-60425714D01*
X244359642Y-60568571D01*
X244216785Y-60640000D01*
X244145357Y-60640000D01*
X244002500Y-60568571D01*
X243931071Y-60425714D01*
X243931071Y-60211428D01*
X244002500Y-60068571D01*
X244931071Y-59354285D02*
X243931071Y-59354285D01*
X243431071Y-59354285D02*
X243502500Y-59425714D01*
X243573928Y-59354285D01*
X243502500Y-59282857D01*
X243431071Y-59354285D01*
X243573928Y-59354285D01*
X243931071Y-57997142D02*
X245145357Y-57997142D01*
X245288214Y-58068571D01*
X245359642Y-58140000D01*
X245431071Y-58282857D01*
X245431071Y-58497142D01*
X245359642Y-58640000D01*
X244859642Y-57997142D02*
X244931071Y-58140000D01*
X244931071Y-58425714D01*
X244859642Y-58568571D01*
X244788214Y-58640000D01*
X244645357Y-58711428D01*
X244216785Y-58711428D01*
X244073928Y-58640000D01*
X244002500Y-58568571D01*
X243931071Y-58425714D01*
X243931071Y-58140000D01*
X244002500Y-57997142D01*
X243931071Y-57282857D02*
X244931071Y-57282857D01*
X244073928Y-57282857D02*
X244002500Y-57211428D01*
X243931071Y-57068571D01*
X243931071Y-56854285D01*
X244002500Y-56711428D01*
X244145357Y-56640000D01*
X244931071Y-56640000D01*
X244859642Y-55354285D02*
X244931071Y-55497142D01*
X244931071Y-55782857D01*
X244859642Y-55925714D01*
X244716785Y-55997142D01*
X244145357Y-55997142D01*
X244002500Y-55925714D01*
X243931071Y-55782857D01*
X243931071Y-55497142D01*
X244002500Y-55354285D01*
X244145357Y-55282857D01*
X244288214Y-55282857D01*
X244431071Y-55997142D01*
X244931071Y-53997142D02*
X243431071Y-53997142D01*
X244859642Y-53997142D02*
X244931071Y-54140000D01*
X244931071Y-54425714D01*
X244859642Y-54568571D01*
X244788214Y-54640000D01*
X244645357Y-54711428D01*
X244216785Y-54711428D01*
X244073928Y-54640000D01*
X244002500Y-54568571D01*
X243931071Y-54425714D01*
X243931071Y-54140000D01*
X244002500Y-53997142D01*
X244931071Y-52140000D02*
X243431071Y-52140000D01*
X244002500Y-52140000D02*
X243931071Y-51997142D01*
X243931071Y-51711428D01*
X244002500Y-51568571D01*
X244073928Y-51497142D01*
X244216785Y-51425714D01*
X244645357Y-51425714D01*
X244788214Y-51497142D01*
X244859642Y-51568571D01*
X244931071Y-51711428D01*
X244931071Y-51997142D01*
X244859642Y-52140000D01*
X243931071Y-50925714D02*
X244931071Y-50568571D01*
X243931071Y-50211428D02*
X244931071Y-50568571D01*
X245288214Y-50711428D01*
X245359642Y-50782857D01*
X245431071Y-50925714D01*
X243431071Y-48068571D02*
X244502500Y-48068571D01*
X244716785Y-48140000D01*
X244859642Y-48282857D01*
X244931071Y-48497142D01*
X244931071Y-48640000D01*
X244931071Y-46711428D02*
X244145357Y-46711428D01*
X244002500Y-46782857D01*
X243931071Y-46925714D01*
X243931071Y-47211428D01*
X244002500Y-47354285D01*
X244859642Y-46711428D02*
X244931071Y-46854285D01*
X244931071Y-47211428D01*
X244859642Y-47354285D01*
X244716785Y-47425714D01*
X244573928Y-47425714D01*
X244431071Y-47354285D01*
X244359642Y-47211428D01*
X244359642Y-46854285D01*
X244288214Y-46711428D01*
X244859642Y-45354285D02*
X244931071Y-45497142D01*
X244931071Y-45782857D01*
X244859642Y-45925714D01*
X244788214Y-45997142D01*
X244645357Y-46068571D01*
X244216785Y-46068571D01*
X244073928Y-45997142D01*
X244002500Y-45925714D01*
X243931071Y-45782857D01*
X243931071Y-45497142D01*
X244002500Y-45354285D01*
X244931071Y-44497142D02*
X244859642Y-44640000D01*
X244788214Y-44711428D01*
X244645357Y-44782857D01*
X244216785Y-44782857D01*
X244073928Y-44711428D01*
X244002500Y-44640000D01*
X243931071Y-44497142D01*
X243931071Y-44282857D01*
X244002500Y-44140000D01*
X244073928Y-44068571D01*
X244216785Y-43997142D01*
X244645357Y-43997142D01*
X244788214Y-44068571D01*
X244859642Y-44140000D01*
X244931071Y-44282857D01*
X244931071Y-44497142D01*
X244931071Y-43354285D02*
X243431071Y-43354285D01*
X244002500Y-43354285D02*
X243931071Y-43211428D01*
X243931071Y-42925714D01*
X244002500Y-42782857D01*
X244073928Y-42711428D01*
X244216785Y-42640000D01*
X244645357Y-42640000D01*
X244788214Y-42711428D01*
X244859642Y-42782857D01*
X244931071Y-42925714D01*
X244931071Y-43211428D01*
X244859642Y-43354285D01*
X244931071Y-40140000D02*
X244931071Y-40854285D01*
X243431071Y-40854285D01*
X243931071Y-38997142D02*
X244931071Y-38997142D01*
X243931071Y-39640000D02*
X244716785Y-39640000D01*
X244859642Y-39568571D01*
X244931071Y-39425714D01*
X244931071Y-39211428D01*
X244859642Y-39068571D01*
X244788214Y-38997142D01*
X243931071Y-38282857D02*
X244931071Y-38282857D01*
X244073928Y-38282857D02*
X244002500Y-38211428D01*
X243931071Y-38068571D01*
X243931071Y-37854285D01*
X244002500Y-37711428D01*
X244145357Y-37640000D01*
X244931071Y-37640000D01*
X244931071Y-36282857D02*
X243431071Y-36282857D01*
X244859642Y-36282857D02*
X244931071Y-36425714D01*
X244931071Y-36711428D01*
X244859642Y-36854285D01*
X244788214Y-36925714D01*
X244645357Y-36997142D01*
X244216785Y-36997142D01*
X244073928Y-36925714D01*
X244002500Y-36854285D01*
X243931071Y-36711428D01*
X243931071Y-36425714D01*
X244002500Y-36282857D01*
X244859642Y-35640000D02*
X244931071Y-35497142D01*
X244931071Y-35211428D01*
X244859642Y-35068571D01*
X244716785Y-34997142D01*
X244645357Y-34997142D01*
X244502500Y-35068571D01*
X244431071Y-35211428D01*
X244431071Y-35425714D01*
X244359642Y-35568571D01*
X244216785Y-35640000D01*
X244145357Y-35640000D01*
X244002500Y-35568571D01*
X243931071Y-35425714D01*
X243931071Y-35211428D01*
X244002500Y-35068571D01*
X243931071Y-34568571D02*
X243931071Y-33997142D01*
X243431071Y-34354285D02*
X244716785Y-34354285D01*
X244859642Y-34282857D01*
X244931071Y-34140000D01*
X244931071Y-33997142D01*
X244931071Y-33497142D02*
X243931071Y-33497142D01*
X244216785Y-33497142D02*
X244073928Y-33425714D01*
X244002500Y-33354285D01*
X243931071Y-33211428D01*
X243931071Y-33068571D01*
X244931071Y-32354285D02*
X244859642Y-32497142D01*
X244788214Y-32568571D01*
X244645357Y-32640000D01*
X244216785Y-32640000D01*
X244073928Y-32568571D01*
X244002500Y-32497142D01*
X243931071Y-32354285D01*
X243931071Y-32140000D01*
X244002500Y-31997142D01*
X244073928Y-31925714D01*
X244216785Y-31854285D01*
X244645357Y-31854285D01*
X244788214Y-31925714D01*
X244859642Y-31997142D01*
X244931071Y-32140000D01*
X244931071Y-32354285D01*
X244931071Y-31211428D02*
X243931071Y-31211428D01*
X244073928Y-31211428D02*
X244002500Y-31140000D01*
X243931071Y-30997142D01*
X243931071Y-30782857D01*
X244002500Y-30640000D01*
X244145357Y-30568571D01*
X244931071Y-30568571D01*
X244145357Y-30568571D02*
X244002500Y-30497142D01*
X243931071Y-30354285D01*
X243931071Y-30140000D01*
X244002500Y-29997142D01*
X244145357Y-29925714D01*
X244931071Y-29925714D01*
X247346071Y-59175714D02*
X245846071Y-59175714D01*
X246917500Y-58675714D01*
X245846071Y-58175714D01*
X247346071Y-58175714D01*
X247346071Y-57461428D02*
X246346071Y-57461428D01*
X245846071Y-57461428D02*
X245917500Y-57532857D01*
X245988928Y-57461428D01*
X245917500Y-57390000D01*
X245846071Y-57461428D01*
X245988928Y-57461428D01*
X247274642Y-56104285D02*
X247346071Y-56247142D01*
X247346071Y-56532857D01*
X247274642Y-56675714D01*
X247203214Y-56747142D01*
X247060357Y-56818571D01*
X246631785Y-56818571D01*
X246488928Y-56747142D01*
X246417500Y-56675714D01*
X246346071Y-56532857D01*
X246346071Y-56247142D01*
X246417500Y-56104285D01*
X247346071Y-55461428D02*
X246346071Y-55461428D01*
X246631785Y-55461428D02*
X246488928Y-55390000D01*
X246417500Y-55318571D01*
X246346071Y-55175714D01*
X246346071Y-55032857D01*
X247346071Y-54318571D02*
X247274642Y-54461428D01*
X247203214Y-54532857D01*
X247060357Y-54604285D01*
X246631785Y-54604285D01*
X246488928Y-54532857D01*
X246417500Y-54461428D01*
X246346071Y-54318571D01*
X246346071Y-54104285D01*
X246417500Y-53961428D01*
X246488928Y-53890000D01*
X246631785Y-53818571D01*
X247060357Y-53818571D01*
X247203214Y-53890000D01*
X247274642Y-53961428D01*
X247346071Y-54104285D01*
X247346071Y-54318571D01*
X247346071Y-52032857D02*
X245846071Y-52032857D01*
X246917500Y-51532857D01*
X245846071Y-51032857D01*
X247346071Y-51032857D01*
X247346071Y-50318571D02*
X246346071Y-50318571D01*
X245846071Y-50318571D02*
X245917500Y-50390000D01*
X245988928Y-50318571D01*
X245917500Y-50247142D01*
X245846071Y-50318571D01*
X245988928Y-50318571D01*
X247346071Y-49747142D02*
X246346071Y-48961428D01*
X246346071Y-49747142D02*
X247346071Y-48961428D01*
X247274642Y-47818571D02*
X247346071Y-47961428D01*
X247346071Y-48247142D01*
X247274642Y-48390000D01*
X247131785Y-48461428D01*
X246560357Y-48461428D01*
X246417500Y-48390000D01*
X246346071Y-48247142D01*
X246346071Y-47961428D01*
X246417500Y-47818571D01*
X246560357Y-47747142D01*
X246703214Y-47747142D01*
X246846071Y-48461428D01*
X247346071Y-47104285D02*
X246346071Y-47104285D01*
X246631785Y-47104285D02*
X246488928Y-47032857D01*
X246417500Y-46961428D01*
X246346071Y-46818571D01*
X246346071Y-46675714D01*
X246774642Y-45032857D02*
X246774642Y-43890000D01*
X247346071Y-41175714D02*
X246631785Y-41675714D01*
X247346071Y-42032857D02*
X245846071Y-42032857D01*
X245846071Y-41461428D01*
X245917500Y-41318571D01*
X245988928Y-41247142D01*
X246131785Y-41175714D01*
X246346071Y-41175714D01*
X246488928Y-41247142D01*
X246560357Y-41318571D01*
X246631785Y-41461428D01*
X246631785Y-42032857D01*
X247274642Y-39961428D02*
X247346071Y-40104285D01*
X247346071Y-40390000D01*
X247274642Y-40532857D01*
X247131785Y-40604285D01*
X246560357Y-40604285D01*
X246417500Y-40532857D01*
X246346071Y-40390000D01*
X246346071Y-40104285D01*
X246417500Y-39961428D01*
X246560357Y-39890000D01*
X246703214Y-39890000D01*
X246846071Y-40604285D01*
X246346071Y-39390000D02*
X247346071Y-39032857D01*
X246346071Y-38675714D01*
X247346071Y-36175714D02*
X247346071Y-37032857D01*
X247346071Y-36604285D02*
X245846071Y-36604285D01*
X246060357Y-36747142D01*
X246203214Y-36890000D01*
X246274642Y-37032857D01*
X247203214Y-35532857D02*
X247274642Y-35461428D01*
X247346071Y-35532857D01*
X247274642Y-35604285D01*
X247203214Y-35532857D01*
X247346071Y-35532857D01*
X245846071Y-34532857D02*
X245846071Y-34390000D01*
X245917500Y-34247142D01*
X245988928Y-34175714D01*
X246131785Y-34104285D01*
X246417500Y-34032857D01*
X246774642Y-34032857D01*
X247060357Y-34104285D01*
X247203214Y-34175714D01*
X247274642Y-34247142D01*
X247346071Y-34390000D01*
X247346071Y-34532857D01*
X247274642Y-34675714D01*
X247203214Y-34747142D01*
X247060357Y-34818571D01*
X246774642Y-34890000D01*
X246417500Y-34890000D01*
X246131785Y-34818571D01*
X245988928Y-34747142D01*
X245917500Y-34675714D01*
X245846071Y-34532857D01*
D11*
%TO.C,RN1*%
X165509523Y-77402380D02*
X165176190Y-76926190D01*
X164938095Y-77402380D02*
X164938095Y-76402380D01*
X165319047Y-76402380D01*
X165414285Y-76450000D01*
X165461904Y-76497619D01*
X165509523Y-76592857D01*
X165509523Y-76735714D01*
X165461904Y-76830952D01*
X165414285Y-76878571D01*
X165319047Y-76926190D01*
X164938095Y-76926190D01*
X165938095Y-77402380D02*
X165938095Y-76402380D01*
X166509523Y-77402380D01*
X166509523Y-76402380D01*
X167509523Y-77402380D02*
X166938095Y-77402380D01*
X167223809Y-77402380D02*
X167223809Y-76402380D01*
X167128571Y-76545238D01*
X167033333Y-76640476D01*
X166938095Y-76688095D01*
%TO.C,J1*%
X91157380Y-82574583D02*
X91871666Y-82574583D01*
X92014523Y-82622202D01*
X92109761Y-82717440D01*
X92157380Y-82860297D01*
X92157380Y-82955535D01*
X92157380Y-81574583D02*
X92157380Y-82146011D01*
X92157380Y-81860297D02*
X91157380Y-81860297D01*
X91300238Y-81955535D01*
X91395476Y-82050773D01*
X91443095Y-82146011D01*
%TO.C,R7*%
X153783333Y-85482380D02*
X153450000Y-85006190D01*
X153211904Y-85482380D02*
X153211904Y-84482380D01*
X153592857Y-84482380D01*
X153688095Y-84530000D01*
X153735714Y-84577619D01*
X153783333Y-84672857D01*
X153783333Y-84815714D01*
X153735714Y-84910952D01*
X153688095Y-84958571D01*
X153592857Y-85006190D01*
X153211904Y-85006190D01*
X154116666Y-84482380D02*
X154783333Y-84482380D01*
X154354761Y-85482380D01*
%TO.C,D3*%
X221786904Y-108412380D02*
X221786904Y-107412380D01*
X222025000Y-107412380D01*
X222167857Y-107460000D01*
X222263095Y-107555238D01*
X222310714Y-107650476D01*
X222358333Y-107840952D01*
X222358333Y-107983809D01*
X222310714Y-108174285D01*
X222263095Y-108269523D01*
X222167857Y-108364761D01*
X222025000Y-108412380D01*
X221786904Y-108412380D01*
X222691666Y-107412380D02*
X223310714Y-107412380D01*
X222977380Y-107793333D01*
X223120238Y-107793333D01*
X223215476Y-107840952D01*
X223263095Y-107888571D01*
X223310714Y-107983809D01*
X223310714Y-108221904D01*
X223263095Y-108317142D01*
X223215476Y-108364761D01*
X223120238Y-108412380D01*
X222834523Y-108412380D01*
X222739285Y-108364761D01*
X222691666Y-108317142D01*
X218453095Y-108582380D02*
X218453095Y-107582380D01*
X219024523Y-108582380D02*
X218595952Y-108010952D01*
X219024523Y-107582380D02*
X218453095Y-108153809D01*
%TO.C,C2*%
X206114583Y-83558392D02*
X206066964Y-83606011D01*
X205924107Y-83653630D01*
X205828869Y-83653630D01*
X205686011Y-83606011D01*
X205590773Y-83510773D01*
X205543154Y-83415535D01*
X205495535Y-83225059D01*
X205495535Y-83082202D01*
X205543154Y-82891726D01*
X205590773Y-82796488D01*
X205686011Y-82701250D01*
X205828869Y-82653630D01*
X205924107Y-82653630D01*
X206066964Y-82701250D01*
X206114583Y-82748869D01*
X206495535Y-82748869D02*
X206543154Y-82701250D01*
X206638392Y-82653630D01*
X206876488Y-82653630D01*
X206971726Y-82701250D01*
X207019345Y-82748869D01*
X207066964Y-82844107D01*
X207066964Y-82939345D01*
X207019345Y-83082202D01*
X206447916Y-83653630D01*
X207066964Y-83653630D01*
%TO.C,RV2*%
X88894761Y-96792380D02*
X88561428Y-96316190D01*
X88323333Y-96792380D02*
X88323333Y-95792380D01*
X88704285Y-95792380D01*
X88799523Y-95840000D01*
X88847142Y-95887619D01*
X88894761Y-95982857D01*
X88894761Y-96125714D01*
X88847142Y-96220952D01*
X88799523Y-96268571D01*
X88704285Y-96316190D01*
X88323333Y-96316190D01*
X89180476Y-95792380D02*
X89513809Y-96792380D01*
X89847142Y-95792380D01*
X90132857Y-95887619D02*
X90180476Y-95840000D01*
X90275714Y-95792380D01*
X90513809Y-95792380D01*
X90609047Y-95840000D01*
X90656666Y-95887619D01*
X90704285Y-95982857D01*
X90704285Y-96078095D01*
X90656666Y-96220952D01*
X90085238Y-96792380D01*
X90704285Y-96792380D01*
%TO.C,R1*%
X98799583Y-77942380D02*
X98466250Y-77466190D01*
X98228154Y-77942380D02*
X98228154Y-76942380D01*
X98609107Y-76942380D01*
X98704345Y-76990000D01*
X98751964Y-77037619D01*
X98799583Y-77132857D01*
X98799583Y-77275714D01*
X98751964Y-77370952D01*
X98704345Y-77418571D01*
X98609107Y-77466190D01*
X98228154Y-77466190D01*
X99751964Y-77942380D02*
X99180535Y-77942380D01*
X99466250Y-77942380D02*
X99466250Y-76942380D01*
X99371011Y-77085238D01*
X99275773Y-77180476D01*
X99180535Y-77228095D01*
%TO.C,RV1*%
X88694761Y-126772380D02*
X88361428Y-126296190D01*
X88123333Y-126772380D02*
X88123333Y-125772380D01*
X88504285Y-125772380D01*
X88599523Y-125820000D01*
X88647142Y-125867619D01*
X88694761Y-125962857D01*
X88694761Y-126105714D01*
X88647142Y-126200952D01*
X88599523Y-126248571D01*
X88504285Y-126296190D01*
X88123333Y-126296190D01*
X88980476Y-125772380D02*
X89313809Y-126772380D01*
X89647142Y-125772380D01*
X90504285Y-126772380D02*
X89932857Y-126772380D01*
X90218571Y-126772380D02*
X90218571Y-125772380D01*
X90123333Y-125915238D01*
X90028095Y-126010476D01*
X89932857Y-126058095D01*
%TO.C,R4*%
X227743333Y-117592380D02*
X227410000Y-117116190D01*
X227171904Y-117592380D02*
X227171904Y-116592380D01*
X227552857Y-116592380D01*
X227648095Y-116640000D01*
X227695714Y-116687619D01*
X227743333Y-116782857D01*
X227743333Y-116925714D01*
X227695714Y-117020952D01*
X227648095Y-117068571D01*
X227552857Y-117116190D01*
X227171904Y-117116190D01*
X228600476Y-116925714D02*
X228600476Y-117592380D01*
X228362380Y-116544761D02*
X228124285Y-117259047D01*
X228743333Y-117259047D01*
%TO.C,U2*%
X162257380Y-84898154D02*
X163066904Y-84898154D01*
X163162142Y-84850535D01*
X163209761Y-84802916D01*
X163257380Y-84707678D01*
X163257380Y-84517202D01*
X163209761Y-84421964D01*
X163162142Y-84374345D01*
X163066904Y-84326726D01*
X162257380Y-84326726D01*
X162352619Y-83898154D02*
X162305000Y-83850535D01*
X162257380Y-83755297D01*
X162257380Y-83517202D01*
X162305000Y-83421964D01*
X162352619Y-83374345D01*
X162447857Y-83326726D01*
X162543095Y-83326726D01*
X162685952Y-83374345D01*
X163257380Y-83945773D01*
X163257380Y-83326726D01*
%TO.C,R6*%
X226523333Y-58712380D02*
X226190000Y-58236190D01*
X225951904Y-58712380D02*
X225951904Y-57712380D01*
X226332857Y-57712380D01*
X226428095Y-57760000D01*
X226475714Y-57807619D01*
X226523333Y-57902857D01*
X226523333Y-58045714D01*
X226475714Y-58140952D01*
X226428095Y-58188571D01*
X226332857Y-58236190D01*
X225951904Y-58236190D01*
X227380476Y-57712380D02*
X227190000Y-57712380D01*
X227094761Y-57760000D01*
X227047142Y-57807619D01*
X226951904Y-57950476D01*
X226904285Y-58140952D01*
X226904285Y-58521904D01*
X226951904Y-58617142D01*
X226999523Y-58664761D01*
X227094761Y-58712380D01*
X227285238Y-58712380D01*
X227380476Y-58664761D01*
X227428095Y-58617142D01*
X227475714Y-58521904D01*
X227475714Y-58283809D01*
X227428095Y-58188571D01*
X227380476Y-58140952D01*
X227285238Y-58093333D01*
X227094761Y-58093333D01*
X226999523Y-58140952D01*
X226951904Y-58188571D01*
X226904285Y-58283809D01*
%TO.C,R3*%
X206473333Y-119532380D02*
X206140000Y-119056190D01*
X205901904Y-119532380D02*
X205901904Y-118532380D01*
X206282857Y-118532380D01*
X206378095Y-118580000D01*
X206425714Y-118627619D01*
X206473333Y-118722857D01*
X206473333Y-118865714D01*
X206425714Y-118960952D01*
X206378095Y-119008571D01*
X206282857Y-119056190D01*
X205901904Y-119056190D01*
X206806666Y-118532380D02*
X207425714Y-118532380D01*
X207092380Y-118913333D01*
X207235238Y-118913333D01*
X207330476Y-118960952D01*
X207378095Y-119008571D01*
X207425714Y-119103809D01*
X207425714Y-119341904D01*
X207378095Y-119437142D01*
X207330476Y-119484761D01*
X207235238Y-119532380D01*
X206949523Y-119532380D01*
X206854285Y-119484761D01*
X206806666Y-119437142D01*
%TO.C,J2*%
X163442380Y-52393333D02*
X164156666Y-52393333D01*
X164299523Y-52440952D01*
X164394761Y-52536190D01*
X164442380Y-52679047D01*
X164442380Y-52774285D01*
X163537619Y-51964761D02*
X163490000Y-51917142D01*
X163442380Y-51821904D01*
X163442380Y-51583809D01*
X163490000Y-51488571D01*
X163537619Y-51440952D01*
X163632857Y-51393333D01*
X163728095Y-51393333D01*
X163870952Y-51440952D01*
X164442380Y-52012380D01*
X164442380Y-51393333D01*
%TO.C,C1*%
X185833333Y-74457142D02*
X185785714Y-74504761D01*
X185642857Y-74552380D01*
X185547619Y-74552380D01*
X185404761Y-74504761D01*
X185309523Y-74409523D01*
X185261904Y-74314285D01*
X185214285Y-74123809D01*
X185214285Y-73980952D01*
X185261904Y-73790476D01*
X185309523Y-73695238D01*
X185404761Y-73600000D01*
X185547619Y-73552380D01*
X185642857Y-73552380D01*
X185785714Y-73600000D01*
X185833333Y-73647619D01*
X186785714Y-74552380D02*
X186214285Y-74552380D01*
X186500000Y-74552380D02*
X186500000Y-73552380D01*
X186404761Y-73695238D01*
X186309523Y-73790476D01*
X186214285Y-73838095D01*
%TO.C,R8*%
X153643333Y-55292380D02*
X153310000Y-54816190D01*
X153071904Y-55292380D02*
X153071904Y-54292380D01*
X153452857Y-54292380D01*
X153548095Y-54340000D01*
X153595714Y-54387619D01*
X153643333Y-54482857D01*
X153643333Y-54625714D01*
X153595714Y-54720952D01*
X153548095Y-54768571D01*
X153452857Y-54816190D01*
X153071904Y-54816190D01*
X154214761Y-54720952D02*
X154119523Y-54673333D01*
X154071904Y-54625714D01*
X154024285Y-54530476D01*
X154024285Y-54482857D01*
X154071904Y-54387619D01*
X154119523Y-54340000D01*
X154214761Y-54292380D01*
X154405238Y-54292380D01*
X154500476Y-54340000D01*
X154548095Y-54387619D01*
X154595714Y-54482857D01*
X154595714Y-54530476D01*
X154548095Y-54625714D01*
X154500476Y-54673333D01*
X154405238Y-54720952D01*
X154214761Y-54720952D01*
X154119523Y-54768571D01*
X154071904Y-54816190D01*
X154024285Y-54911428D01*
X154024285Y-55101904D01*
X154071904Y-55197142D01*
X154119523Y-55244761D01*
X154214761Y-55292380D01*
X154405238Y-55292380D01*
X154500476Y-55244761D01*
X154548095Y-55197142D01*
X154595714Y-55101904D01*
X154595714Y-54911428D01*
X154548095Y-54816190D01*
X154500476Y-54768571D01*
X154405238Y-54720952D01*
%TO.C,RV3*%
X88614761Y-66282380D02*
X88281428Y-65806190D01*
X88043333Y-66282380D02*
X88043333Y-65282380D01*
X88424285Y-65282380D01*
X88519523Y-65330000D01*
X88567142Y-65377619D01*
X88614761Y-65472857D01*
X88614761Y-65615714D01*
X88567142Y-65710952D01*
X88519523Y-65758571D01*
X88424285Y-65806190D01*
X88043333Y-65806190D01*
X88900476Y-65282380D02*
X89233809Y-66282380D01*
X89567142Y-65282380D01*
X89805238Y-65282380D02*
X90424285Y-65282380D01*
X90090952Y-65663333D01*
X90233809Y-65663333D01*
X90329047Y-65710952D01*
X90376666Y-65758571D01*
X90424285Y-65853809D01*
X90424285Y-66091904D01*
X90376666Y-66187142D01*
X90329047Y-66234761D01*
X90233809Y-66282380D01*
X89948095Y-66282380D01*
X89852857Y-66234761D01*
X89805238Y-66187142D01*
%TO.C,RV4*%
X88474761Y-36742380D02*
X88141428Y-36266190D01*
X87903333Y-36742380D02*
X87903333Y-35742380D01*
X88284285Y-35742380D01*
X88379523Y-35790000D01*
X88427142Y-35837619D01*
X88474761Y-35932857D01*
X88474761Y-36075714D01*
X88427142Y-36170952D01*
X88379523Y-36218571D01*
X88284285Y-36266190D01*
X87903333Y-36266190D01*
X88760476Y-35742380D02*
X89093809Y-36742380D01*
X89427142Y-35742380D01*
X90189047Y-36075714D02*
X90189047Y-36742380D01*
X89950952Y-35694761D02*
X89712857Y-36409047D01*
X90331904Y-36409047D01*
%TO.C,R2*%
X98803333Y-87922380D02*
X98470000Y-87446190D01*
X98231904Y-87922380D02*
X98231904Y-86922380D01*
X98612857Y-86922380D01*
X98708095Y-86970000D01*
X98755714Y-87017619D01*
X98803333Y-87112857D01*
X98803333Y-87255714D01*
X98755714Y-87350952D01*
X98708095Y-87398571D01*
X98612857Y-87446190D01*
X98231904Y-87446190D01*
X99184285Y-87017619D02*
X99231904Y-86970000D01*
X99327142Y-86922380D01*
X99565238Y-86922380D01*
X99660476Y-86970000D01*
X99708095Y-87017619D01*
X99755714Y-87112857D01*
X99755714Y-87208095D01*
X99708095Y-87350952D01*
X99136666Y-87922380D01*
X99755714Y-87922380D01*
%TO.C,D2*%
X251786904Y-112622380D02*
X251786904Y-111622380D01*
X252025000Y-111622380D01*
X252167857Y-111670000D01*
X252263095Y-111765238D01*
X252310714Y-111860476D01*
X252358333Y-112050952D01*
X252358333Y-112193809D01*
X252310714Y-112384285D01*
X252263095Y-112479523D01*
X252167857Y-112574761D01*
X252025000Y-112622380D01*
X251786904Y-112622380D01*
X252739285Y-111717619D02*
X252786904Y-111670000D01*
X252882142Y-111622380D01*
X253120238Y-111622380D01*
X253215476Y-111670000D01*
X253263095Y-111717619D01*
X253310714Y-111812857D01*
X253310714Y-111908095D01*
X253263095Y-112050952D01*
X252691666Y-112622380D01*
X253310714Y-112622380D01*
X248453095Y-112792380D02*
X248453095Y-111792380D01*
X249024523Y-112792380D02*
X248595952Y-112220952D01*
X249024523Y-111792380D02*
X248453095Y-112363809D01*
%TO.C,U1*%
X113138095Y-84152380D02*
X113138095Y-84961904D01*
X113185714Y-85057142D01*
X113233333Y-85104761D01*
X113328571Y-85152380D01*
X113519047Y-85152380D01*
X113614285Y-85104761D01*
X113661904Y-85057142D01*
X113709523Y-84961904D01*
X113709523Y-84152380D01*
X114709523Y-85152380D02*
X114138095Y-85152380D01*
X114423809Y-85152380D02*
X114423809Y-84152380D01*
X114328571Y-84295238D01*
X114233333Y-84390476D01*
X114138095Y-84438095D01*
%TO.C,D5*%
X221321904Y-78422380D02*
X221321904Y-77422380D01*
X221560000Y-77422380D01*
X221702857Y-77470000D01*
X221798095Y-77565238D01*
X221845714Y-77660476D01*
X221893333Y-77850952D01*
X221893333Y-77993809D01*
X221845714Y-78184285D01*
X221798095Y-78279523D01*
X221702857Y-78374761D01*
X221560000Y-78422380D01*
X221321904Y-78422380D01*
X222798095Y-77422380D02*
X222321904Y-77422380D01*
X222274285Y-77898571D01*
X222321904Y-77850952D01*
X222417142Y-77803333D01*
X222655238Y-77803333D01*
X222750476Y-77850952D01*
X222798095Y-77898571D01*
X222845714Y-77993809D01*
X222845714Y-78231904D01*
X222798095Y-78327142D01*
X222750476Y-78374761D01*
X222655238Y-78422380D01*
X222417142Y-78422380D01*
X222321904Y-78374761D01*
X222274285Y-78327142D01*
X217988095Y-78592380D02*
X217988095Y-77592380D01*
X218559523Y-78592380D02*
X218130952Y-78020952D01*
X218559523Y-77592380D02*
X217988095Y-78163809D01*
%TO.C,D6*%
X244101904Y-68422380D02*
X244101904Y-67422380D01*
X244340000Y-67422380D01*
X244482857Y-67470000D01*
X244578095Y-67565238D01*
X244625714Y-67660476D01*
X244673333Y-67850952D01*
X244673333Y-67993809D01*
X244625714Y-68184285D01*
X244578095Y-68279523D01*
X244482857Y-68374761D01*
X244340000Y-68422380D01*
X244101904Y-68422380D01*
X245530476Y-67422380D02*
X245340000Y-67422380D01*
X245244761Y-67470000D01*
X245197142Y-67517619D01*
X245101904Y-67660476D01*
X245054285Y-67850952D01*
X245054285Y-68231904D01*
X245101904Y-68327142D01*
X245149523Y-68374761D01*
X245244761Y-68422380D01*
X245435238Y-68422380D01*
X245530476Y-68374761D01*
X245578095Y-68327142D01*
X245625714Y-68231904D01*
X245625714Y-67993809D01*
X245578095Y-67898571D01*
X245530476Y-67850952D01*
X245435238Y-67803333D01*
X245244761Y-67803333D01*
X245149523Y-67850952D01*
X245101904Y-67898571D01*
X245054285Y-67993809D01*
X240768095Y-68592380D02*
X240768095Y-67592380D01*
X241339523Y-68592380D02*
X240910952Y-68020952D01*
X241339523Y-67592380D02*
X240768095Y-68163809D01*
%TO.C,C3*%
X140893333Y-90947142D02*
X140845714Y-90994761D01*
X140702857Y-91042380D01*
X140607619Y-91042380D01*
X140464761Y-90994761D01*
X140369523Y-90899523D01*
X140321904Y-90804285D01*
X140274285Y-90613809D01*
X140274285Y-90470952D01*
X140321904Y-90280476D01*
X140369523Y-90185238D01*
X140464761Y-90090000D01*
X140607619Y-90042380D01*
X140702857Y-90042380D01*
X140845714Y-90090000D01*
X140893333Y-90137619D01*
X141226666Y-90042380D02*
X141845714Y-90042380D01*
X141512380Y-90423333D01*
X141655238Y-90423333D01*
X141750476Y-90470952D01*
X141798095Y-90518571D01*
X141845714Y-90613809D01*
X141845714Y-90851904D01*
X141798095Y-90947142D01*
X141750476Y-90994761D01*
X141655238Y-91042380D01*
X141369523Y-91042380D01*
X141274285Y-90994761D01*
X141226666Y-90947142D01*
%TO.C,D7*%
X221741904Y-48502380D02*
X221741904Y-47502380D01*
X221980000Y-47502380D01*
X222122857Y-47550000D01*
X222218095Y-47645238D01*
X222265714Y-47740476D01*
X222313333Y-47930952D01*
X222313333Y-48073809D01*
X222265714Y-48264285D01*
X222218095Y-48359523D01*
X222122857Y-48454761D01*
X221980000Y-48502380D01*
X221741904Y-48502380D01*
X222646666Y-47502380D02*
X223313333Y-47502380D01*
X222884761Y-48502380D01*
X218408095Y-48672380D02*
X218408095Y-47672380D01*
X218979523Y-48672380D02*
X218550952Y-48100952D01*
X218979523Y-47672380D02*
X218408095Y-48243809D01*
%TO.C,D4*%
X244101904Y-86982380D02*
X244101904Y-85982380D01*
X244340000Y-85982380D01*
X244482857Y-86030000D01*
X244578095Y-86125238D01*
X244625714Y-86220476D01*
X244673333Y-86410952D01*
X244673333Y-86553809D01*
X244625714Y-86744285D01*
X244578095Y-86839523D01*
X244482857Y-86934761D01*
X244340000Y-86982380D01*
X244101904Y-86982380D01*
X245530476Y-86315714D02*
X245530476Y-86982380D01*
X245292380Y-85934761D02*
X245054285Y-86649047D01*
X245673333Y-86649047D01*
X240768095Y-87152380D02*
X240768095Y-86152380D01*
X241339523Y-87152380D02*
X240910952Y-86580952D01*
X241339523Y-86152380D02*
X240768095Y-86723809D01*
%TO.C,R5*%
X225683333Y-87842380D02*
X225350000Y-87366190D01*
X225111904Y-87842380D02*
X225111904Y-86842380D01*
X225492857Y-86842380D01*
X225588095Y-86890000D01*
X225635714Y-86937619D01*
X225683333Y-87032857D01*
X225683333Y-87175714D01*
X225635714Y-87270952D01*
X225588095Y-87318571D01*
X225492857Y-87366190D01*
X225111904Y-87366190D01*
X226588095Y-86842380D02*
X226111904Y-86842380D01*
X226064285Y-87318571D01*
X226111904Y-87270952D01*
X226207142Y-87223333D01*
X226445238Y-87223333D01*
X226540476Y-87270952D01*
X226588095Y-87318571D01*
X226635714Y-87413809D01*
X226635714Y-87651904D01*
X226588095Y-87747142D01*
X226540476Y-87794761D01*
X226445238Y-87842380D01*
X226207142Y-87842380D01*
X226111904Y-87794761D01*
X226064285Y-87747142D01*
%TO.C,D1*%
X244362380Y-128203095D02*
X243362380Y-128203095D01*
X243362380Y-127965000D01*
X243410000Y-127822142D01*
X243505238Y-127726904D01*
X243600476Y-127679285D01*
X243790952Y-127631666D01*
X243933809Y-127631666D01*
X244124285Y-127679285D01*
X244219523Y-127726904D01*
X244314761Y-127822142D01*
X244362380Y-127965000D01*
X244362380Y-128203095D01*
X244362380Y-126679285D02*
X244362380Y-127250714D01*
X244362380Y-126965000D02*
X243362380Y-126965000D01*
X243505238Y-127060238D01*
X243600476Y-127155476D01*
X243648095Y-127250714D01*
X244192380Y-123916904D02*
X243192380Y-123916904D01*
X244192380Y-123345476D02*
X243620952Y-123774047D01*
X243192380Y-123345476D02*
X243763809Y-123916904D01*
D12*
%TO.C,RN1*%
X167970000Y-75430000D02*
X167970000Y-78230000D01*
X167970000Y-78230000D02*
X181010000Y-78230000D01*
X181010000Y-78230000D02*
X181010000Y-75430000D01*
X181010000Y-75430000D02*
X167970000Y-75430000D01*
X170680000Y-75430000D02*
X170680000Y-78230000D01*
%TO.C,J1*%
X87840000Y-77661250D02*
X85920000Y-77661250D01*
X85920000Y-86821250D02*
X87840000Y-86821250D01*
X83910000Y-86821250D02*
X82205000Y-86821250D01*
X82205000Y-77661250D02*
X83910000Y-77661250D01*
X82205000Y-86821250D02*
X82205000Y-77661250D01*
%TO.C,R7*%
X148640000Y-87750000D02*
X149330000Y-87750000D01*
X158570000Y-86030000D02*
X149330000Y-86030000D01*
X149330000Y-89470000D02*
X158570000Y-89470000D01*
X159260000Y-87750000D02*
X158570000Y-87750000D01*
X149330000Y-86030000D02*
X149330000Y-89470000D01*
X158570000Y-89470000D02*
X158570000Y-86030000D01*
%TO.C,D3*%
X224165000Y-110800000D02*
X224165000Y-108960000D01*
X224165000Y-108960000D02*
X220885000Y-108960000D01*
X221341000Y-108960000D02*
X221341000Y-110800000D01*
X220885000Y-108960000D02*
X220885000Y-110800000D01*
X219705000Y-109880000D02*
X220885000Y-109880000D01*
X221461000Y-108960000D02*
X221461000Y-110800000D01*
X221581000Y-108960000D02*
X221581000Y-110800000D01*
X225345000Y-109880000D02*
X224165000Y-109880000D01*
X220885000Y-110800000D02*
X224165000Y-110800000D01*
%TO.C,C2*%
X203611250Y-84330250D02*
X203611250Y-84996250D01*
X208951250Y-84330250D02*
X208951250Y-84996250D01*
X203611250Y-87106250D02*
X203611250Y-87772250D01*
X203611250Y-84330250D02*
X208951250Y-84330250D01*
X203611250Y-87772250D02*
X208951250Y-87772250D01*
X208951250Y-87106250D02*
X208951250Y-87772250D01*
%TO.C,RV2*%
X85145000Y-89741250D02*
X213145000Y-89741250D01*
X85145000Y-89741250D02*
X85145000Y-97741250D01*
X213145000Y-100541250D02*
X213145000Y-101541250D01*
X85145000Y-104741250D02*
X213145000Y-104741250D01*
X213145000Y-104741250D02*
X213145000Y-104341250D01*
X85145000Y-104741250D02*
X85145000Y-100741250D01*
X213145000Y-89741250D02*
X213145000Y-97741250D01*
%TO.C,R1*%
X103586250Y-79198750D02*
X103586250Y-75758750D01*
X94346250Y-79198750D02*
X103586250Y-79198750D01*
X104276250Y-77478750D02*
X103586250Y-77478750D01*
X103586250Y-75758750D02*
X94346250Y-75758750D01*
X93656250Y-77478750D02*
X94346250Y-77478750D01*
X94346250Y-75758750D02*
X94346250Y-79198750D01*
%TO.C,RV1*%
X213145000Y-130541250D02*
X213145000Y-131541250D01*
X213145000Y-119741250D02*
X213145000Y-127741250D01*
X85145000Y-119741250D02*
X213145000Y-119741250D01*
X85145000Y-134741250D02*
X85145000Y-130741250D01*
X213145000Y-134741250D02*
X213145000Y-134341250D01*
X85145000Y-119741250D02*
X85145000Y-127741250D01*
X85145000Y-134741250D02*
X213145000Y-134741250D01*
%TO.C,R4*%
X232530000Y-112700000D02*
X223290000Y-112700000D01*
X223290000Y-112700000D02*
X223290000Y-116140000D01*
X233220000Y-114420000D02*
X232530000Y-114420000D01*
X232530000Y-116140000D02*
X232530000Y-112700000D01*
X222600000Y-114420000D02*
X223290000Y-114420000D01*
X223290000Y-116140000D02*
X232530000Y-116140000D01*
%TO.C,U2*%
X199485000Y-81486250D02*
X163805000Y-81486250D01*
X163805000Y-86786250D02*
X199485000Y-86786250D01*
X163805000Y-85136250D02*
X163805000Y-86786250D01*
X199485000Y-86786250D02*
X199485000Y-81486250D01*
X163805000Y-81486250D02*
X163805000Y-83136250D01*
X163805000Y-85136250D02*
G75*
G03*
X163805000Y-83136250I0J1000000D01*
G01*
%TO.C,R6*%
X222070000Y-57260000D02*
X231310000Y-57260000D01*
X232000000Y-55540000D02*
X231310000Y-55540000D01*
X222070000Y-53820000D02*
X222070000Y-57260000D01*
X231310000Y-53820000D02*
X222070000Y-53820000D01*
X231310000Y-57260000D02*
X231310000Y-53820000D01*
X221380000Y-55540000D02*
X222070000Y-55540000D01*
%TO.C,R3*%
X202020000Y-114850000D02*
X202020000Y-118290000D01*
X201330000Y-116570000D02*
X202020000Y-116570000D01*
X211260000Y-118290000D02*
X211260000Y-114850000D01*
X211950000Y-116570000D02*
X211260000Y-116570000D01*
X202020000Y-118290000D02*
X211260000Y-118290000D01*
X211260000Y-114850000D02*
X202020000Y-114850000D01*
%TO.C,J2*%
X167590000Y-50730000D02*
X180350000Y-50730000D01*
X167590000Y-53390000D02*
X180350000Y-53390000D01*
X167590000Y-53390000D02*
X167590000Y-50730000D01*
X180350000Y-53390000D02*
X180350000Y-50730000D01*
X164990000Y-53390000D02*
X164990000Y-52060000D01*
X166320000Y-53390000D02*
X164990000Y-53390000D01*
%TO.C,C1*%
X183330000Y-78005000D02*
X183330000Y-78671000D01*
X183330000Y-75229000D02*
X183330000Y-75895000D01*
X183330000Y-75229000D02*
X188670000Y-75229000D01*
X183330000Y-78671000D02*
X188670000Y-78671000D01*
X188670000Y-78005000D02*
X188670000Y-78671000D01*
X188670000Y-75229000D02*
X188670000Y-75895000D01*
%TO.C,R8*%
X158430000Y-53840000D02*
X158430000Y-50400000D01*
X148500000Y-52120000D02*
X149190000Y-52120000D01*
X149190000Y-50400000D02*
X149190000Y-53840000D01*
X159120000Y-52120000D02*
X158430000Y-52120000D01*
X158430000Y-50400000D02*
X149190000Y-50400000D01*
X149190000Y-53840000D02*
X158430000Y-53840000D01*
%TO.C,RV3*%
X213145000Y-59741250D02*
X213145000Y-67741250D01*
X213145000Y-74741250D02*
X213145000Y-74341250D01*
X85145000Y-74741250D02*
X213145000Y-74741250D01*
X85145000Y-59741250D02*
X213145000Y-59741250D01*
X85145000Y-59741250D02*
X85145000Y-67741250D01*
X85145000Y-74741250D02*
X85145000Y-70741250D01*
X213145000Y-70541250D02*
X213145000Y-71541250D01*
%TO.C,RV4*%
X85145000Y-29741250D02*
X213145000Y-29741250D01*
X213145000Y-40541250D02*
X213145000Y-41541250D01*
X213145000Y-29741250D02*
X213145000Y-37741250D01*
X85145000Y-29741250D02*
X85145000Y-37741250D01*
X85145000Y-44741250D02*
X85145000Y-40741250D01*
X85145000Y-44741250D02*
X213145000Y-44741250D01*
X213145000Y-44741250D02*
X213145000Y-44341250D01*
%TO.C,R2*%
X94346250Y-89200000D02*
X103586250Y-89200000D01*
X93656250Y-87480000D02*
X94346250Y-87480000D01*
X103586250Y-85760000D02*
X94346250Y-85760000D01*
X104276250Y-87480000D02*
X103586250Y-87480000D01*
X94346250Y-85760000D02*
X94346250Y-89200000D01*
X103586250Y-89200000D02*
X103586250Y-85760000D01*
%TO.C,D2*%
X255345000Y-114090000D02*
X254165000Y-114090000D01*
X249705000Y-114090000D02*
X250885000Y-114090000D01*
X251581000Y-113170000D02*
X251581000Y-115010000D01*
X251341000Y-113170000D02*
X251341000Y-115010000D01*
X250885000Y-115010000D02*
X254165000Y-115010000D01*
X254165000Y-115010000D02*
X254165000Y-113170000D01*
X254165000Y-113170000D02*
X250885000Y-113170000D01*
X251461000Y-113170000D02*
X251461000Y-115010000D01*
X250885000Y-113170000D02*
X250885000Y-115010000D01*
%TO.C,U1*%
X113900000Y-83860000D02*
X113100000Y-83860000D01*
X113900000Y-80740000D02*
X114700000Y-80740000D01*
X113900000Y-83860000D02*
X115700000Y-83860000D01*
X113900000Y-80740000D02*
X113100000Y-80740000D01*
%TO.C,D5*%
X220420000Y-80810000D02*
X223700000Y-80810000D01*
X220876000Y-78970000D02*
X220876000Y-80810000D01*
X219240000Y-79890000D02*
X220420000Y-79890000D01*
X223700000Y-80810000D02*
X223700000Y-78970000D01*
X220996000Y-78970000D02*
X220996000Y-80810000D01*
X224880000Y-79890000D02*
X223700000Y-79890000D01*
X221116000Y-78970000D02*
X221116000Y-80810000D01*
X220420000Y-78970000D02*
X220420000Y-80810000D01*
X223700000Y-78970000D02*
X220420000Y-78970000D01*
%TO.C,D6*%
X242020000Y-69890000D02*
X243200000Y-69890000D01*
X243200000Y-70810000D02*
X246480000Y-70810000D01*
X243656000Y-68970000D02*
X243656000Y-70810000D01*
X246480000Y-68970000D02*
X243200000Y-68970000D01*
X243200000Y-68970000D02*
X243200000Y-70810000D01*
X246480000Y-70810000D02*
X246480000Y-68970000D01*
X243896000Y-68970000D02*
X243896000Y-70810000D01*
X243776000Y-68970000D02*
X243776000Y-70810000D01*
X247660000Y-69890000D02*
X246480000Y-69890000D01*
%TO.C,C3*%
X143730000Y-86685000D02*
X143730000Y-86019000D01*
X138390000Y-89461000D02*
X138390000Y-88795000D01*
X138390000Y-86685000D02*
X138390000Y-86019000D01*
X143730000Y-89461000D02*
X138390000Y-89461000D01*
X143730000Y-86019000D02*
X138390000Y-86019000D01*
X143730000Y-89461000D02*
X143730000Y-88795000D01*
%TO.C,D7*%
X221296000Y-49050000D02*
X221296000Y-50890000D01*
X220840000Y-49050000D02*
X220840000Y-50890000D01*
X224120000Y-49050000D02*
X220840000Y-49050000D01*
X224120000Y-50890000D02*
X224120000Y-49050000D01*
X219660000Y-49970000D02*
X220840000Y-49970000D01*
X225300000Y-49970000D02*
X224120000Y-49970000D01*
X221536000Y-49050000D02*
X221536000Y-50890000D01*
X221416000Y-49050000D02*
X221416000Y-50890000D01*
X220840000Y-50890000D02*
X224120000Y-50890000D01*
%TO.C,D4*%
X247660000Y-88450000D02*
X246480000Y-88450000D01*
X243200000Y-87530000D02*
X243200000Y-89370000D01*
X243896000Y-87530000D02*
X243896000Y-89370000D01*
X243656000Y-87530000D02*
X243656000Y-89370000D01*
X242020000Y-88450000D02*
X243200000Y-88450000D01*
X243776000Y-87530000D02*
X243776000Y-89370000D01*
X246480000Y-89370000D02*
X246480000Y-87530000D01*
X246480000Y-87530000D02*
X243200000Y-87530000D01*
X243200000Y-89370000D02*
X246480000Y-89370000D01*
%TO.C,R5*%
X221230000Y-86390000D02*
X230470000Y-86390000D01*
X230470000Y-82950000D02*
X221230000Y-82950000D01*
X230470000Y-86390000D02*
X230470000Y-82950000D01*
X231160000Y-84670000D02*
X230470000Y-84670000D01*
X220540000Y-84670000D02*
X221230000Y-84670000D01*
X221230000Y-82950000D02*
X221230000Y-86390000D01*
%TO.C,D1*%
X242910000Y-129105000D02*
X242910000Y-125825000D01*
X241990000Y-130285000D02*
X241990000Y-129105000D01*
X242910000Y-126281000D02*
X241070000Y-126281000D01*
X242910000Y-126401000D02*
X241070000Y-126401000D01*
X242910000Y-126521000D02*
X241070000Y-126521000D01*
X241070000Y-129105000D02*
X242910000Y-129105000D01*
X241070000Y-125825000D02*
X241070000Y-129105000D01*
X242910000Y-125825000D02*
X241070000Y-125825000D01*
X241990000Y-124645000D02*
X241990000Y-125825000D01*
%TD*%
M02*
