%TF.GenerationSoftware,KiCad,Pcbnew,(6.0.0)*%
%TF.CreationDate,2023-05-21T00:13:47-05:00*%
%TF.ProjectId,micro-mixer-pcb,6d696372-6f2d-46d6-9978-65722d706362,rev?*%
%TF.SameCoordinates,Original*%
%TF.FileFunction,Soldermask,Bot*%
%TF.FilePolarity,Negative*%
%FSLAX46Y46*%
G04 Gerber Fmt 4.6, Leading zero omitted, Abs format (unit mm)*
G04 Created by KiCad (PCBNEW (6.0.0)) date 2023-05-21 00:13:47*
%MOMM*%
%LPD*%
G01*
G04 APERTURE LIST*
%ADD10R,1.600000X1.600000*%
%ADD11O,1.600000X1.600000*%
%ADD12O,2.100000X1.000000*%
%ADD13O,1.600000X1.000000*%
%ADD14C,0.650000*%
%ADD15C,1.600000*%
%ADD16R,1.500000X1.500000*%
%ADD17O,1.500000X1.500000*%
%ADD18C,3.987800*%
%ADD19C,1.750000*%
%ADD20C,2.250000*%
%ADD21C,1.905000*%
%ADD22R,1.905000X1.905000*%
%ADD23C,2.000000*%
%ADD24R,1.700000X1.700000*%
%ADD25O,1.700000X1.700000*%
G04 APERTURE END LIST*
D10*
%TO.C,RN1*%
X169410000Y-76830000D03*
D11*
X171950000Y-76830000D03*
X174490000Y-76830000D03*
X177030000Y-76830000D03*
X179570000Y-76830000D03*
%TD*%
D12*
%TO.C,J1*%
X89095000Y-77921250D03*
X89095000Y-86561250D03*
D13*
X84915000Y-77921250D03*
X84915000Y-86561250D03*
D14*
X88595000Y-85131250D03*
X88595000Y-79351250D03*
%TD*%
D15*
%TO.C,R7*%
X147600000Y-87750000D03*
D11*
X160300000Y-87750000D03*
%TD*%
D16*
%TO.C,D3*%
X218715000Y-109880000D03*
D17*
X226335000Y-109880000D03*
%TD*%
D15*
%TO.C,C2*%
X203781250Y-86051250D03*
X208781250Y-86051250D03*
%TD*%
D18*
%TO.C,MX5*%
X229145000Y-67241250D03*
D19*
X229145000Y-72321250D03*
X229145000Y-62161250D03*
D20*
X226605000Y-71051250D03*
X224065000Y-64701250D03*
D21*
X234225000Y-68511250D03*
D22*
X234225000Y-65971250D03*
%TD*%
D18*
%TO.C,MX4*%
X259145000Y-82241250D03*
D19*
X259145000Y-87321250D03*
X259145000Y-77161250D03*
D20*
X256605000Y-86051250D03*
X254065000Y-79701250D03*
%TD*%
D23*
%TO.C,RV2*%
X212895000Y-99141250D03*
X212895000Y-102941250D03*
X85395000Y-99141250D03*
%TD*%
D19*
%TO.C,MX3*%
X229145000Y-92161250D03*
D18*
X229145000Y-97241250D03*
D19*
X229145000Y-102321250D03*
D20*
X226605000Y-101051250D03*
X224065000Y-94701250D03*
D21*
X234225000Y-98511250D03*
D22*
X234225000Y-95971250D03*
%TD*%
D15*
%TO.C,R1*%
X92616250Y-77478750D03*
D11*
X105316250Y-77478750D03*
%TD*%
D23*
%TO.C,RV1*%
X212895000Y-129141250D03*
X212895000Y-132941250D03*
X85395000Y-129141250D03*
%TD*%
D15*
%TO.C,R4*%
X234260000Y-114420000D03*
D11*
X221560000Y-114420000D03*
%TD*%
D10*
%TO.C,U2*%
X165135000Y-87946250D03*
D11*
X167675000Y-87946250D03*
X170215000Y-87946250D03*
X172755000Y-87946250D03*
X175295000Y-87946250D03*
X177835000Y-87946250D03*
X180375000Y-87946250D03*
X182915000Y-87946250D03*
X185455000Y-87946250D03*
X187995000Y-87946250D03*
X190535000Y-87946250D03*
X193075000Y-87946250D03*
X195615000Y-87946250D03*
X198155000Y-87946250D03*
X198155000Y-80326250D03*
X195615000Y-80326250D03*
X193075000Y-80326250D03*
X190535000Y-80326250D03*
X187995000Y-80326250D03*
X185455000Y-80326250D03*
X182915000Y-80326250D03*
X180375000Y-80326250D03*
X177835000Y-80326250D03*
X175295000Y-80326250D03*
X172755000Y-80326250D03*
X170215000Y-80326250D03*
X167675000Y-80326250D03*
X165135000Y-80326250D03*
%TD*%
D15*
%TO.C,R6*%
X233040000Y-55540000D03*
D11*
X220340000Y-55540000D03*
%TD*%
D18*
%TO.C,MX2*%
X259145000Y-101291250D03*
D19*
X259145000Y-96211250D03*
X259145000Y-106371250D03*
D20*
X256605000Y-105101250D03*
X254065000Y-98751250D03*
%TD*%
D15*
%TO.C,R3*%
X212990000Y-116570000D03*
D11*
X200290000Y-116570000D03*
%TD*%
D24*
%TO.C,J2*%
X166320000Y-52060000D03*
D25*
X168860000Y-52060000D03*
X171400000Y-52060000D03*
X173940000Y-52060000D03*
X176480000Y-52060000D03*
X179020000Y-52060000D03*
%TD*%
D15*
%TO.C,C1*%
X183500000Y-76950000D03*
X188500000Y-76950000D03*
%TD*%
%TO.C,R8*%
X160160000Y-52120000D03*
D11*
X147460000Y-52120000D03*
%TD*%
D23*
%TO.C,RV3*%
X212895000Y-69141250D03*
X212895000Y-72941250D03*
X85395000Y-69141250D03*
%TD*%
%TO.C,RV4*%
X212895000Y-39141250D03*
X212895000Y-42941250D03*
X85395000Y-39141250D03*
%TD*%
D15*
%TO.C,R2*%
X105316250Y-87480000D03*
D11*
X92616250Y-87480000D03*
%TD*%
D16*
%TO.C,D2*%
X248715000Y-114090000D03*
D17*
X256335000Y-114090000D03*
%TD*%
D16*
%TO.C,D5*%
X218250000Y-79890000D03*
D17*
X225870000Y-79890000D03*
%TD*%
D16*
%TO.C,D6*%
X241030000Y-69890000D03*
D17*
X248650000Y-69890000D03*
%TD*%
D15*
%TO.C,C3*%
X143560000Y-87740000D03*
X138560000Y-87740000D03*
%TD*%
D16*
%TO.C,D7*%
X218670000Y-49970000D03*
D17*
X226290000Y-49970000D03*
%TD*%
D16*
%TO.C,D4*%
X241030000Y-88450000D03*
D17*
X248650000Y-88450000D03*
%TD*%
D19*
%TO.C,MX6*%
X259145000Y-68271250D03*
X259145000Y-58111250D03*
D18*
X259145000Y-63191250D03*
D20*
X256605000Y-67001250D03*
X254065000Y-60651250D03*
%TD*%
D19*
%TO.C,MX1*%
X229145000Y-132321250D03*
X229145000Y-122161250D03*
D18*
X229145000Y-127241250D03*
D20*
X226605000Y-131051250D03*
X224065000Y-124701250D03*
D21*
X234225000Y-128511250D03*
D22*
X234225000Y-125971250D03*
%TD*%
D18*
%TO.C,MX7*%
X229145000Y-37241250D03*
D19*
X229145000Y-32161250D03*
X229145000Y-42321250D03*
D20*
X226605000Y-41051250D03*
X224065000Y-34701250D03*
D21*
X234225000Y-38511250D03*
D22*
X234225000Y-35971250D03*
%TD*%
D15*
%TO.C,R5*%
X232200000Y-84670000D03*
D11*
X219500000Y-84670000D03*
%TD*%
D16*
%TO.C,D1*%
X241990000Y-123655000D03*
D17*
X241990000Y-131275000D03*
%TD*%
M02*
