%FSLAX45Y45*%
G04 Gerber Fmt 4.5, Leading zero omitted, Abs format (unit mm)*
G04 Created by KiCad (PCBNEW (6.0.0)) date 2023-05-21 00:13:49*
%MOMM*%
%LPD*%
G01*
G04 APERTURE LIST*
%TA.AperFunction,Profile*%
%ADD10C,0.100000*%
%TD*%
%TA.AperFunction,Profile*%
%ADD11C,0.200000*%
%TD*%
%ADD12C,0.200000*%
%ADD13C,0.065000*%
%ADD14C,0.175000*%
%ADD15C,0.398780*%
G04 APERTURE END LIST*
D10*
X26067000Y-12677000D02*
G75*
G03*
X26067000Y-12677000I-200000J0D01*
G01*
X26067000Y-3771000D02*
G75*
G03*
X26067000Y-3771000I-200000J0D01*
G01*
D11*
X8325000Y-2771000D02*
X26867000Y-2771000D01*
X26867000Y-2771000D02*
X26867000Y-13677000D01*
X26867000Y-13677000D02*
X8325000Y-13677000D01*
X8325000Y-13677000D02*
X8325000Y-2771000D01*
D10*
X12200000Y-11270000D02*
G75*
G03*
X12200000Y-11270000I-200000J0D01*
G01*
X12200000Y-5270000D02*
G75*
G03*
X12200000Y-5270000I-200000J0D01*
G01*
D12*
D13*
X8827000Y-7902625D02*
X8892000Y-7967625D01*
X8892000Y-7902625D02*
X8827000Y-7967625D01*
X8827000Y-8480625D02*
X8892000Y-8545625D01*
X8892000Y-8480625D02*
X8827000Y-8545625D01*
D14*
X23002000Y-3216125D02*
G75*
G03*
X23002000Y-3216125I-87500J0D01*
G01*
X23002000Y-4232125D02*
G75*
G03*
X23002000Y-4232125I-87500J0D01*
G01*
X23002000Y-6216125D02*
G75*
G03*
X23002000Y-6216125I-87500J0D01*
G01*
X23002000Y-7232125D02*
G75*
G03*
X23002000Y-7232125I-87500J0D01*
G01*
X23002000Y-9216125D02*
G75*
G03*
X23002000Y-9216125I-87500J0D01*
G01*
X23002000Y-10232125D02*
G75*
G03*
X23002000Y-10232125I-87500J0D01*
G01*
X23002000Y-12216125D02*
G75*
G03*
X23002000Y-12216125I-87500J0D01*
G01*
X23002000Y-13232125D02*
G75*
G03*
X23002000Y-13232125I-87500J0D01*
G01*
X26002000Y-5811125D02*
G75*
G03*
X26002000Y-5811125I-87500J0D01*
G01*
X26002000Y-6827125D02*
G75*
G03*
X26002000Y-6827125I-87500J0D01*
G01*
X26002000Y-7716125D02*
G75*
G03*
X26002000Y-7716125I-87500J0D01*
G01*
X26002000Y-8732125D02*
G75*
G03*
X26002000Y-8732125I-87500J0D01*
G01*
X26002000Y-9621125D02*
G75*
G03*
X26002000Y-9621125I-87500J0D01*
G01*
X26002000Y-10637125D02*
G75*
G03*
X26002000Y-10637125I-87500J0D01*
G01*
D15*
X22914500Y-3524735D02*
X22914500Y-3923515D01*
X22715110Y-3724125D02*
X23113890Y-3724125D01*
X22914500Y-6524735D02*
X22914500Y-6923515D01*
X22715110Y-6724125D02*
X23113890Y-6724125D01*
X22914500Y-9524735D02*
X22914500Y-9923515D01*
X22715110Y-9724125D02*
X23113890Y-9724125D01*
X22914500Y-12524735D02*
X22914500Y-12923515D01*
X22715110Y-12724125D02*
X23113890Y-12724125D01*
X25914500Y-6119735D02*
X25914500Y-6518515D01*
X25715110Y-6319125D02*
X26113890Y-6319125D01*
X25914500Y-8024735D02*
X25914500Y-8423515D01*
X25715110Y-8224125D02*
X26113890Y-8224125D01*
X25914500Y-9929735D02*
X25914500Y-10328515D01*
X25715110Y-10129125D02*
X26113890Y-10129125D01*
D12*
X8572619Y-13997476D02*
X8572619Y-13797476D01*
X8620238Y-13797476D01*
X8648810Y-13807000D01*
X8667857Y-13826048D01*
X8677381Y-13845095D01*
X8686905Y-13883190D01*
X8686905Y-13911762D01*
X8677381Y-13949857D01*
X8667857Y-13968905D01*
X8648810Y-13987952D01*
X8620238Y-13997476D01*
X8572619Y-13997476D01*
X8772619Y-13997476D02*
X8772619Y-13864143D01*
X8772619Y-13902238D02*
X8782143Y-13883190D01*
X8791667Y-13873667D01*
X8810714Y-13864143D01*
X8829762Y-13864143D01*
X8896429Y-13997476D02*
X8896429Y-13864143D01*
X8896429Y-13797476D02*
X8886905Y-13807000D01*
X8896429Y-13816524D01*
X8905952Y-13807000D01*
X8896429Y-13797476D01*
X8896429Y-13816524D01*
X9020238Y-13997476D02*
X9001190Y-13987952D01*
X8991667Y-13968905D01*
X8991667Y-13797476D01*
X9125000Y-13997476D02*
X9105952Y-13987952D01*
X9096429Y-13968905D01*
X9096429Y-13797476D01*
X9353571Y-13997476D02*
X9353571Y-13797476D01*
X9420238Y-13940333D01*
X9486905Y-13797476D01*
X9486905Y-13997476D01*
X9667857Y-13997476D02*
X9667857Y-13892714D01*
X9658333Y-13873667D01*
X9639286Y-13864143D01*
X9601190Y-13864143D01*
X9582143Y-13873667D01*
X9667857Y-13987952D02*
X9648810Y-13997476D01*
X9601190Y-13997476D01*
X9582143Y-13987952D01*
X9572619Y-13968905D01*
X9572619Y-13949857D01*
X9582143Y-13930809D01*
X9601190Y-13921286D01*
X9648810Y-13921286D01*
X9667857Y-13911762D01*
X9763095Y-13864143D02*
X9763095Y-14064143D01*
X9763095Y-13873667D02*
X9782143Y-13864143D01*
X9820238Y-13864143D01*
X9839286Y-13873667D01*
X9848810Y-13883190D01*
X9858333Y-13902238D01*
X9858333Y-13959381D01*
X9848810Y-13978428D01*
X9839286Y-13987952D01*
X9820238Y-13997476D01*
X9782143Y-13997476D01*
X9763095Y-13987952D01*
X9944048Y-13978428D02*
X9953571Y-13987952D01*
X9944048Y-13997476D01*
X9934524Y-13987952D01*
X9944048Y-13978428D01*
X9944048Y-13997476D01*
X9944048Y-13873667D02*
X9953571Y-13883190D01*
X9944048Y-13892714D01*
X9934524Y-13883190D01*
X9944048Y-13873667D01*
X9944048Y-13892714D01*
D13*
X8250000Y-14294500D02*
X8315000Y-14359500D01*
X8315000Y-14294500D02*
X8250000Y-14359500D01*
D12*
X8610714Y-14217476D02*
X8629762Y-14217476D01*
X8648810Y-14227000D01*
X8658333Y-14236524D01*
X8667857Y-14255571D01*
X8677381Y-14293667D01*
X8677381Y-14341286D01*
X8667857Y-14379381D01*
X8658333Y-14398428D01*
X8648810Y-14407952D01*
X8629762Y-14417476D01*
X8610714Y-14417476D01*
X8591667Y-14407952D01*
X8582143Y-14398428D01*
X8572619Y-14379381D01*
X8563095Y-14341286D01*
X8563095Y-14293667D01*
X8572619Y-14255571D01*
X8582143Y-14236524D01*
X8591667Y-14227000D01*
X8610714Y-14217476D01*
X8763095Y-14398428D02*
X8772619Y-14407952D01*
X8763095Y-14417476D01*
X8753571Y-14407952D01*
X8763095Y-14398428D01*
X8763095Y-14417476D01*
X8944048Y-14217476D02*
X8905952Y-14217476D01*
X8886905Y-14227000D01*
X8877381Y-14236524D01*
X8858333Y-14265095D01*
X8848810Y-14303190D01*
X8848810Y-14379381D01*
X8858333Y-14398428D01*
X8867857Y-14407952D01*
X8886905Y-14417476D01*
X8925000Y-14417476D01*
X8944048Y-14407952D01*
X8953571Y-14398428D01*
X8963095Y-14379381D01*
X8963095Y-14331762D01*
X8953571Y-14312714D01*
X8944048Y-14303190D01*
X8925000Y-14293667D01*
X8886905Y-14293667D01*
X8867857Y-14303190D01*
X8858333Y-14312714D01*
X8848810Y-14331762D01*
X9144048Y-14217476D02*
X9048810Y-14217476D01*
X9039286Y-14312714D01*
X9048810Y-14303190D01*
X9067857Y-14293667D01*
X9115476Y-14293667D01*
X9134524Y-14303190D01*
X9144048Y-14312714D01*
X9153571Y-14331762D01*
X9153571Y-14379381D01*
X9144048Y-14398428D01*
X9134524Y-14407952D01*
X9115476Y-14417476D01*
X9067857Y-14417476D01*
X9048810Y-14407952D01*
X9039286Y-14398428D01*
X9277381Y-14217476D02*
X9296429Y-14217476D01*
X9315476Y-14227000D01*
X9325000Y-14236524D01*
X9334524Y-14255571D01*
X9344048Y-14293667D01*
X9344048Y-14341286D01*
X9334524Y-14379381D01*
X9325000Y-14398428D01*
X9315476Y-14407952D01*
X9296429Y-14417476D01*
X9277381Y-14417476D01*
X9258333Y-14407952D01*
X9248810Y-14398428D01*
X9239286Y-14379381D01*
X9229762Y-14341286D01*
X9229762Y-14293667D01*
X9239286Y-14255571D01*
X9248810Y-14236524D01*
X9258333Y-14227000D01*
X9277381Y-14217476D01*
X9429762Y-14417476D02*
X9429762Y-14284143D01*
X9429762Y-14303190D02*
X9439286Y-14293667D01*
X9458333Y-14284143D01*
X9486905Y-14284143D01*
X9505952Y-14293667D01*
X9515476Y-14312714D01*
X9515476Y-14417476D01*
X9515476Y-14312714D02*
X9525000Y-14293667D01*
X9544048Y-14284143D01*
X9572619Y-14284143D01*
X9591667Y-14293667D01*
X9601190Y-14312714D01*
X9601190Y-14417476D01*
X9696429Y-14417476D02*
X9696429Y-14284143D01*
X9696429Y-14303190D02*
X9705952Y-14293667D01*
X9725000Y-14284143D01*
X9753571Y-14284143D01*
X9772619Y-14293667D01*
X9782143Y-14312714D01*
X9782143Y-14417476D01*
X9782143Y-14312714D02*
X9791667Y-14293667D01*
X9810714Y-14284143D01*
X9839286Y-14284143D01*
X9858333Y-14293667D01*
X9867857Y-14312714D01*
X9867857Y-14417476D01*
X10258333Y-14207952D02*
X10086905Y-14465095D01*
X10515476Y-14217476D02*
X10534524Y-14217476D01*
X10553571Y-14227000D01*
X10563095Y-14236524D01*
X10572619Y-14255571D01*
X10582143Y-14293667D01*
X10582143Y-14341286D01*
X10572619Y-14379381D01*
X10563095Y-14398428D01*
X10553571Y-14407952D01*
X10534524Y-14417476D01*
X10515476Y-14417476D01*
X10496429Y-14407952D01*
X10486905Y-14398428D01*
X10477381Y-14379381D01*
X10467857Y-14341286D01*
X10467857Y-14293667D01*
X10477381Y-14255571D01*
X10486905Y-14236524D01*
X10496429Y-14227000D01*
X10515476Y-14217476D01*
X10667857Y-14398428D02*
X10677381Y-14407952D01*
X10667857Y-14417476D01*
X10658333Y-14407952D01*
X10667857Y-14398428D01*
X10667857Y-14417476D01*
X10801190Y-14217476D02*
X10820238Y-14217476D01*
X10839286Y-14227000D01*
X10848810Y-14236524D01*
X10858333Y-14255571D01*
X10867857Y-14293667D01*
X10867857Y-14341286D01*
X10858333Y-14379381D01*
X10848810Y-14398428D01*
X10839286Y-14407952D01*
X10820238Y-14417476D01*
X10801190Y-14417476D01*
X10782143Y-14407952D01*
X10772619Y-14398428D01*
X10763095Y-14379381D01*
X10753571Y-14341286D01*
X10753571Y-14293667D01*
X10763095Y-14255571D01*
X10772619Y-14236524D01*
X10782143Y-14227000D01*
X10801190Y-14217476D01*
X10944048Y-14236524D02*
X10953571Y-14227000D01*
X10972619Y-14217476D01*
X11020238Y-14217476D01*
X11039286Y-14227000D01*
X11048810Y-14236524D01*
X11058333Y-14255571D01*
X11058333Y-14274619D01*
X11048810Y-14303190D01*
X10934524Y-14417476D01*
X11058333Y-14417476D01*
X11239286Y-14217476D02*
X11144048Y-14217476D01*
X11134524Y-14312714D01*
X11144048Y-14303190D01*
X11163095Y-14293667D01*
X11210714Y-14293667D01*
X11229762Y-14303190D01*
X11239286Y-14312714D01*
X11248809Y-14331762D01*
X11248809Y-14379381D01*
X11239286Y-14398428D01*
X11229762Y-14407952D01*
X11210714Y-14417476D01*
X11163095Y-14417476D01*
X11144048Y-14407952D01*
X11134524Y-14398428D01*
X11420238Y-14217476D02*
X11382143Y-14217476D01*
X11363095Y-14227000D01*
X11353571Y-14236524D01*
X11334524Y-14265095D01*
X11325000Y-14303190D01*
X11325000Y-14379381D01*
X11334524Y-14398428D01*
X11344048Y-14407952D01*
X11363095Y-14417476D01*
X11401190Y-14417476D01*
X11420238Y-14407952D01*
X11429762Y-14398428D01*
X11439286Y-14379381D01*
X11439286Y-14331762D01*
X11429762Y-14312714D01*
X11420238Y-14303190D01*
X11401190Y-14293667D01*
X11363095Y-14293667D01*
X11344048Y-14303190D01*
X11334524Y-14312714D01*
X11325000Y-14331762D01*
X11515476Y-14217476D02*
X11515476Y-14255571D01*
X11591667Y-14217476D02*
X11591667Y-14255571D01*
X11886905Y-14493667D02*
X11877381Y-14484143D01*
X11858333Y-14455571D01*
X11848809Y-14436524D01*
X11839286Y-14407952D01*
X11829762Y-14360333D01*
X11829762Y-14322238D01*
X11839286Y-14274619D01*
X11848809Y-14246048D01*
X11858333Y-14227000D01*
X11877381Y-14198428D01*
X11886905Y-14188905D01*
X11953571Y-14236524D02*
X11963095Y-14227000D01*
X11982143Y-14217476D01*
X12029762Y-14217476D01*
X12048809Y-14227000D01*
X12058333Y-14236524D01*
X12067857Y-14255571D01*
X12067857Y-14274619D01*
X12058333Y-14303190D01*
X11944048Y-14417476D01*
X12067857Y-14417476D01*
X12305952Y-14417476D02*
X12305952Y-14217476D01*
X12391667Y-14417476D02*
X12391667Y-14312714D01*
X12382143Y-14293667D01*
X12363095Y-14284143D01*
X12334524Y-14284143D01*
X12315476Y-14293667D01*
X12305952Y-14303190D01*
X12515476Y-14417476D02*
X12496428Y-14407952D01*
X12486905Y-14398428D01*
X12477381Y-14379381D01*
X12477381Y-14322238D01*
X12486905Y-14303190D01*
X12496428Y-14293667D01*
X12515476Y-14284143D01*
X12544048Y-14284143D01*
X12563095Y-14293667D01*
X12572619Y-14303190D01*
X12582143Y-14322238D01*
X12582143Y-14379381D01*
X12572619Y-14398428D01*
X12563095Y-14407952D01*
X12544048Y-14417476D01*
X12515476Y-14417476D01*
X12696428Y-14417476D02*
X12677381Y-14407952D01*
X12667857Y-14388905D01*
X12667857Y-14217476D01*
X12848809Y-14407952D02*
X12829762Y-14417476D01*
X12791667Y-14417476D01*
X12772619Y-14407952D01*
X12763095Y-14388905D01*
X12763095Y-14312714D01*
X12772619Y-14293667D01*
X12791667Y-14284143D01*
X12829762Y-14284143D01*
X12848809Y-14293667D01*
X12858333Y-14312714D01*
X12858333Y-14331762D01*
X12763095Y-14350809D01*
X12934524Y-14407952D02*
X12953571Y-14417476D01*
X12991667Y-14417476D01*
X13010714Y-14407952D01*
X13020238Y-14388905D01*
X13020238Y-14379381D01*
X13010714Y-14360333D01*
X12991667Y-14350809D01*
X12963095Y-14350809D01*
X12944048Y-14341286D01*
X12934524Y-14322238D01*
X12934524Y-14312714D01*
X12944048Y-14293667D01*
X12963095Y-14284143D01*
X12991667Y-14284143D01*
X13010714Y-14293667D01*
X13086905Y-14493667D02*
X13096428Y-14484143D01*
X13115476Y-14455571D01*
X13125000Y-14436524D01*
X13134524Y-14407952D01*
X13144048Y-14360333D01*
X13144048Y-14322238D01*
X13134524Y-14274619D01*
X13125000Y-14246048D01*
X13115476Y-14227000D01*
X13096428Y-14198428D01*
X13086905Y-14188905D01*
X13448809Y-14493667D02*
X13439286Y-14484143D01*
X13420238Y-14455571D01*
X13410714Y-14436524D01*
X13401190Y-14407952D01*
X13391667Y-14360333D01*
X13391667Y-14322238D01*
X13401190Y-14274619D01*
X13410714Y-14246048D01*
X13420238Y-14227000D01*
X13439286Y-14198428D01*
X13448809Y-14188905D01*
X13525000Y-14284143D02*
X13525000Y-14417476D01*
X13525000Y-14303190D02*
X13534524Y-14293667D01*
X13553571Y-14284143D01*
X13582143Y-14284143D01*
X13601190Y-14293667D01*
X13610714Y-14312714D01*
X13610714Y-14417476D01*
X13734524Y-14417476D02*
X13715476Y-14407952D01*
X13705952Y-14398428D01*
X13696428Y-14379381D01*
X13696428Y-14322238D01*
X13705952Y-14303190D01*
X13715476Y-14293667D01*
X13734524Y-14284143D01*
X13763095Y-14284143D01*
X13782143Y-14293667D01*
X13791667Y-14303190D01*
X13801190Y-14322238D01*
X13801190Y-14379381D01*
X13791667Y-14398428D01*
X13782143Y-14407952D01*
X13763095Y-14417476D01*
X13734524Y-14417476D01*
X13858333Y-14284143D02*
X13934524Y-14284143D01*
X13886905Y-14217476D02*
X13886905Y-14388905D01*
X13896428Y-14407952D01*
X13915476Y-14417476D01*
X13934524Y-14417476D01*
X14153571Y-14284143D02*
X14153571Y-14484143D01*
X14153571Y-14293667D02*
X14172619Y-14284143D01*
X14210714Y-14284143D01*
X14229762Y-14293667D01*
X14239286Y-14303190D01*
X14248809Y-14322238D01*
X14248809Y-14379381D01*
X14239286Y-14398428D01*
X14229762Y-14407952D01*
X14210714Y-14417476D01*
X14172619Y-14417476D01*
X14153571Y-14407952D01*
X14363095Y-14417476D02*
X14344048Y-14407952D01*
X14334524Y-14388905D01*
X14334524Y-14217476D01*
X14525000Y-14417476D02*
X14525000Y-14312714D01*
X14515476Y-14293667D01*
X14496428Y-14284143D01*
X14458333Y-14284143D01*
X14439286Y-14293667D01*
X14525000Y-14407952D02*
X14505952Y-14417476D01*
X14458333Y-14417476D01*
X14439286Y-14407952D01*
X14429762Y-14388905D01*
X14429762Y-14369857D01*
X14439286Y-14350809D01*
X14458333Y-14341286D01*
X14505952Y-14341286D01*
X14525000Y-14331762D01*
X14591667Y-14284143D02*
X14667857Y-14284143D01*
X14620238Y-14217476D02*
X14620238Y-14388905D01*
X14629762Y-14407952D01*
X14648809Y-14417476D01*
X14667857Y-14417476D01*
X14810714Y-14407952D02*
X14791667Y-14417476D01*
X14753571Y-14417476D01*
X14734524Y-14407952D01*
X14725000Y-14388905D01*
X14725000Y-14312714D01*
X14734524Y-14293667D01*
X14753571Y-14284143D01*
X14791667Y-14284143D01*
X14810714Y-14293667D01*
X14820238Y-14312714D01*
X14820238Y-14331762D01*
X14725000Y-14350809D01*
X14991667Y-14417476D02*
X14991667Y-14217476D01*
X14991667Y-14407952D02*
X14972619Y-14417476D01*
X14934524Y-14417476D01*
X14915476Y-14407952D01*
X14905952Y-14398428D01*
X14896428Y-14379381D01*
X14896428Y-14322238D01*
X14905952Y-14303190D01*
X14915476Y-14293667D01*
X14934524Y-14284143D01*
X14972619Y-14284143D01*
X14991667Y-14293667D01*
X15067857Y-14493667D02*
X15077381Y-14484143D01*
X15096428Y-14455571D01*
X15105952Y-14436524D01*
X15115476Y-14407952D01*
X15125000Y-14360333D01*
X15125000Y-14322238D01*
X15115476Y-14274619D01*
X15105952Y-14246048D01*
X15096428Y-14227000D01*
X15077381Y-14198428D01*
X15067857Y-14188905D01*
D14*
X8315000Y-14591000D02*
G75*
G03*
X8315000Y-14591000I-87500J0D01*
G01*
D12*
X8677381Y-14681476D02*
X8563095Y-14681476D01*
X8620238Y-14681476D02*
X8620238Y-14481476D01*
X8601190Y-14510048D01*
X8582143Y-14529095D01*
X8563095Y-14538619D01*
X8763095Y-14662428D02*
X8772619Y-14671952D01*
X8763095Y-14681476D01*
X8753571Y-14671952D01*
X8763095Y-14662428D01*
X8763095Y-14681476D01*
X8839286Y-14481476D02*
X8972619Y-14481476D01*
X8886905Y-14681476D01*
X9144048Y-14481476D02*
X9048810Y-14481476D01*
X9039286Y-14576714D01*
X9048810Y-14567190D01*
X9067857Y-14557667D01*
X9115476Y-14557667D01*
X9134524Y-14567190D01*
X9144048Y-14576714D01*
X9153571Y-14595762D01*
X9153571Y-14643381D01*
X9144048Y-14662428D01*
X9134524Y-14671952D01*
X9115476Y-14681476D01*
X9067857Y-14681476D01*
X9048810Y-14671952D01*
X9039286Y-14662428D01*
X9277381Y-14481476D02*
X9296429Y-14481476D01*
X9315476Y-14491000D01*
X9325000Y-14500524D01*
X9334524Y-14519571D01*
X9344048Y-14557667D01*
X9344048Y-14605286D01*
X9334524Y-14643381D01*
X9325000Y-14662428D01*
X9315476Y-14671952D01*
X9296429Y-14681476D01*
X9277381Y-14681476D01*
X9258333Y-14671952D01*
X9248810Y-14662428D01*
X9239286Y-14643381D01*
X9229762Y-14605286D01*
X9229762Y-14557667D01*
X9239286Y-14519571D01*
X9248810Y-14500524D01*
X9258333Y-14491000D01*
X9277381Y-14481476D01*
X9429762Y-14681476D02*
X9429762Y-14548143D01*
X9429762Y-14567190D02*
X9439286Y-14557667D01*
X9458333Y-14548143D01*
X9486905Y-14548143D01*
X9505952Y-14557667D01*
X9515476Y-14576714D01*
X9515476Y-14681476D01*
X9515476Y-14576714D02*
X9525000Y-14557667D01*
X9544048Y-14548143D01*
X9572619Y-14548143D01*
X9591667Y-14557667D01*
X9601190Y-14576714D01*
X9601190Y-14681476D01*
X9696429Y-14681476D02*
X9696429Y-14548143D01*
X9696429Y-14567190D02*
X9705952Y-14557667D01*
X9725000Y-14548143D01*
X9753571Y-14548143D01*
X9772619Y-14557667D01*
X9782143Y-14576714D01*
X9782143Y-14681476D01*
X9782143Y-14576714D02*
X9791667Y-14557667D01*
X9810714Y-14548143D01*
X9839286Y-14548143D01*
X9858333Y-14557667D01*
X9867857Y-14576714D01*
X9867857Y-14681476D01*
X10258333Y-14471952D02*
X10086905Y-14729095D01*
X10515476Y-14481476D02*
X10534524Y-14481476D01*
X10553571Y-14491000D01*
X10563095Y-14500524D01*
X10572619Y-14519571D01*
X10582143Y-14557667D01*
X10582143Y-14605286D01*
X10572619Y-14643381D01*
X10563095Y-14662428D01*
X10553571Y-14671952D01*
X10534524Y-14681476D01*
X10515476Y-14681476D01*
X10496429Y-14671952D01*
X10486905Y-14662428D01*
X10477381Y-14643381D01*
X10467857Y-14605286D01*
X10467857Y-14557667D01*
X10477381Y-14519571D01*
X10486905Y-14500524D01*
X10496429Y-14491000D01*
X10515476Y-14481476D01*
X10667857Y-14662428D02*
X10677381Y-14671952D01*
X10667857Y-14681476D01*
X10658333Y-14671952D01*
X10667857Y-14662428D01*
X10667857Y-14681476D01*
X10801190Y-14481476D02*
X10820238Y-14481476D01*
X10839286Y-14491000D01*
X10848810Y-14500524D01*
X10858333Y-14519571D01*
X10867857Y-14557667D01*
X10867857Y-14605286D01*
X10858333Y-14643381D01*
X10848810Y-14662428D01*
X10839286Y-14671952D01*
X10820238Y-14681476D01*
X10801190Y-14681476D01*
X10782143Y-14671952D01*
X10772619Y-14662428D01*
X10763095Y-14643381D01*
X10753571Y-14605286D01*
X10753571Y-14557667D01*
X10763095Y-14519571D01*
X10772619Y-14500524D01*
X10782143Y-14491000D01*
X10801190Y-14481476D01*
X11039286Y-14481476D02*
X11001190Y-14481476D01*
X10982143Y-14491000D01*
X10972619Y-14500524D01*
X10953571Y-14529095D01*
X10944048Y-14567190D01*
X10944048Y-14643381D01*
X10953571Y-14662428D01*
X10963095Y-14671952D01*
X10982143Y-14681476D01*
X11020238Y-14681476D01*
X11039286Y-14671952D01*
X11048810Y-14662428D01*
X11058333Y-14643381D01*
X11058333Y-14595762D01*
X11048810Y-14576714D01*
X11039286Y-14567190D01*
X11020238Y-14557667D01*
X10982143Y-14557667D01*
X10963095Y-14567190D01*
X10953571Y-14576714D01*
X10944048Y-14595762D01*
X11172619Y-14567190D02*
X11153571Y-14557667D01*
X11144048Y-14548143D01*
X11134524Y-14529095D01*
X11134524Y-14519571D01*
X11144048Y-14500524D01*
X11153571Y-14491000D01*
X11172619Y-14481476D01*
X11210714Y-14481476D01*
X11229762Y-14491000D01*
X11239286Y-14500524D01*
X11248809Y-14519571D01*
X11248809Y-14529095D01*
X11239286Y-14548143D01*
X11229762Y-14557667D01*
X11210714Y-14567190D01*
X11172619Y-14567190D01*
X11153571Y-14576714D01*
X11144048Y-14586238D01*
X11134524Y-14605286D01*
X11134524Y-14643381D01*
X11144048Y-14662428D01*
X11153571Y-14671952D01*
X11172619Y-14681476D01*
X11210714Y-14681476D01*
X11229762Y-14671952D01*
X11239286Y-14662428D01*
X11248809Y-14643381D01*
X11248809Y-14605286D01*
X11239286Y-14586238D01*
X11229762Y-14576714D01*
X11210714Y-14567190D01*
X11344048Y-14681476D02*
X11382143Y-14681476D01*
X11401190Y-14671952D01*
X11410714Y-14662428D01*
X11429762Y-14633857D01*
X11439286Y-14595762D01*
X11439286Y-14519571D01*
X11429762Y-14500524D01*
X11420238Y-14491000D01*
X11401190Y-14481476D01*
X11363095Y-14481476D01*
X11344048Y-14491000D01*
X11334524Y-14500524D01*
X11325000Y-14519571D01*
X11325000Y-14567190D01*
X11334524Y-14586238D01*
X11344048Y-14595762D01*
X11363095Y-14605286D01*
X11401190Y-14605286D01*
X11420238Y-14595762D01*
X11429762Y-14586238D01*
X11439286Y-14567190D01*
X11515476Y-14481476D02*
X11515476Y-14519571D01*
X11591667Y-14481476D02*
X11591667Y-14519571D01*
X11886905Y-14757667D02*
X11877381Y-14748143D01*
X11858333Y-14719571D01*
X11848809Y-14700524D01*
X11839286Y-14671952D01*
X11829762Y-14624333D01*
X11829762Y-14586238D01*
X11839286Y-14538619D01*
X11848809Y-14510048D01*
X11858333Y-14491000D01*
X11877381Y-14462428D01*
X11886905Y-14452905D01*
X12067857Y-14681476D02*
X11953571Y-14681476D01*
X12010714Y-14681476D02*
X12010714Y-14481476D01*
X11991667Y-14510048D01*
X11972619Y-14529095D01*
X11953571Y-14538619D01*
X12239286Y-14548143D02*
X12239286Y-14681476D01*
X12191667Y-14471952D02*
X12144048Y-14614809D01*
X12267857Y-14614809D01*
X12496428Y-14681476D02*
X12496428Y-14481476D01*
X12582143Y-14681476D02*
X12582143Y-14576714D01*
X12572619Y-14557667D01*
X12553571Y-14548143D01*
X12525000Y-14548143D01*
X12505952Y-14557667D01*
X12496428Y-14567190D01*
X12705952Y-14681476D02*
X12686905Y-14671952D01*
X12677381Y-14662428D01*
X12667857Y-14643381D01*
X12667857Y-14586238D01*
X12677381Y-14567190D01*
X12686905Y-14557667D01*
X12705952Y-14548143D01*
X12734524Y-14548143D01*
X12753571Y-14557667D01*
X12763095Y-14567190D01*
X12772619Y-14586238D01*
X12772619Y-14643381D01*
X12763095Y-14662428D01*
X12753571Y-14671952D01*
X12734524Y-14681476D01*
X12705952Y-14681476D01*
X12886905Y-14681476D02*
X12867857Y-14671952D01*
X12858333Y-14652905D01*
X12858333Y-14481476D01*
X13039286Y-14671952D02*
X13020238Y-14681476D01*
X12982143Y-14681476D01*
X12963095Y-14671952D01*
X12953571Y-14652905D01*
X12953571Y-14576714D01*
X12963095Y-14557667D01*
X12982143Y-14548143D01*
X13020238Y-14548143D01*
X13039286Y-14557667D01*
X13048809Y-14576714D01*
X13048809Y-14595762D01*
X12953571Y-14614809D01*
X13125000Y-14671952D02*
X13144048Y-14681476D01*
X13182143Y-14681476D01*
X13201190Y-14671952D01*
X13210714Y-14652905D01*
X13210714Y-14643381D01*
X13201190Y-14624333D01*
X13182143Y-14614809D01*
X13153571Y-14614809D01*
X13134524Y-14605286D01*
X13125000Y-14586238D01*
X13125000Y-14576714D01*
X13134524Y-14557667D01*
X13153571Y-14548143D01*
X13182143Y-14548143D01*
X13201190Y-14557667D01*
X13277381Y-14757667D02*
X13286905Y-14748143D01*
X13305952Y-14719571D01*
X13315476Y-14700524D01*
X13325000Y-14671952D01*
X13334524Y-14624333D01*
X13334524Y-14586238D01*
X13325000Y-14538619D01*
X13315476Y-14510048D01*
X13305952Y-14491000D01*
X13286905Y-14462428D01*
X13277381Y-14452905D01*
X13639286Y-14757667D02*
X13629762Y-14748143D01*
X13610714Y-14719571D01*
X13601190Y-14700524D01*
X13591667Y-14671952D01*
X13582143Y-14624333D01*
X13582143Y-14586238D01*
X13591667Y-14538619D01*
X13601190Y-14510048D01*
X13610714Y-14491000D01*
X13629762Y-14462428D01*
X13639286Y-14452905D01*
X13715476Y-14548143D02*
X13715476Y-14681476D01*
X13715476Y-14567190D02*
X13725000Y-14557667D01*
X13744048Y-14548143D01*
X13772619Y-14548143D01*
X13791667Y-14557667D01*
X13801190Y-14576714D01*
X13801190Y-14681476D01*
X13925000Y-14681476D02*
X13905952Y-14671952D01*
X13896428Y-14662428D01*
X13886905Y-14643381D01*
X13886905Y-14586238D01*
X13896428Y-14567190D01*
X13905952Y-14557667D01*
X13925000Y-14548143D01*
X13953571Y-14548143D01*
X13972619Y-14557667D01*
X13982143Y-14567190D01*
X13991667Y-14586238D01*
X13991667Y-14643381D01*
X13982143Y-14662428D01*
X13972619Y-14671952D01*
X13953571Y-14681476D01*
X13925000Y-14681476D01*
X14048809Y-14548143D02*
X14125000Y-14548143D01*
X14077381Y-14481476D02*
X14077381Y-14652905D01*
X14086905Y-14671952D01*
X14105952Y-14681476D01*
X14125000Y-14681476D01*
X14344048Y-14548143D02*
X14344048Y-14748143D01*
X14344048Y-14557667D02*
X14363095Y-14548143D01*
X14401190Y-14548143D01*
X14420238Y-14557667D01*
X14429762Y-14567190D01*
X14439286Y-14586238D01*
X14439286Y-14643381D01*
X14429762Y-14662428D01*
X14420238Y-14671952D01*
X14401190Y-14681476D01*
X14363095Y-14681476D01*
X14344048Y-14671952D01*
X14553571Y-14681476D02*
X14534524Y-14671952D01*
X14525000Y-14652905D01*
X14525000Y-14481476D01*
X14715476Y-14681476D02*
X14715476Y-14576714D01*
X14705952Y-14557667D01*
X14686905Y-14548143D01*
X14648809Y-14548143D01*
X14629762Y-14557667D01*
X14715476Y-14671952D02*
X14696428Y-14681476D01*
X14648809Y-14681476D01*
X14629762Y-14671952D01*
X14620238Y-14652905D01*
X14620238Y-14633857D01*
X14629762Y-14614809D01*
X14648809Y-14605286D01*
X14696428Y-14605286D01*
X14715476Y-14595762D01*
X14782143Y-14548143D02*
X14858333Y-14548143D01*
X14810714Y-14481476D02*
X14810714Y-14652905D01*
X14820238Y-14671952D01*
X14839286Y-14681476D01*
X14858333Y-14681476D01*
X15001190Y-14671952D02*
X14982143Y-14681476D01*
X14944048Y-14681476D01*
X14925000Y-14671952D01*
X14915476Y-14652905D01*
X14915476Y-14576714D01*
X14925000Y-14557667D01*
X14944048Y-14548143D01*
X14982143Y-14548143D01*
X15001190Y-14557667D01*
X15010714Y-14576714D01*
X15010714Y-14595762D01*
X14915476Y-14614809D01*
X15182143Y-14681476D02*
X15182143Y-14481476D01*
X15182143Y-14671952D02*
X15163095Y-14681476D01*
X15125000Y-14681476D01*
X15105952Y-14671952D01*
X15096428Y-14662428D01*
X15086905Y-14643381D01*
X15086905Y-14586238D01*
X15096428Y-14567190D01*
X15105952Y-14557667D01*
X15125000Y-14548143D01*
X15163095Y-14548143D01*
X15182143Y-14557667D01*
X15258333Y-14757667D02*
X15267857Y-14748143D01*
X15286905Y-14719571D01*
X15296428Y-14700524D01*
X15305952Y-14671952D01*
X15315476Y-14624333D01*
X15315476Y-14586238D01*
X15305952Y-14538619D01*
X15296428Y-14510048D01*
X15286905Y-14491000D01*
X15267857Y-14462428D01*
X15258333Y-14452905D01*
X8215000Y-14786000D02*
X8215000Y-14986000D01*
X8115000Y-14886000D02*
X8315000Y-14886000D01*
X8553571Y-14776476D02*
X8677381Y-14776476D01*
X8610714Y-14852667D01*
X8639286Y-14852667D01*
X8658333Y-14862190D01*
X8667857Y-14871714D01*
X8677381Y-14890762D01*
X8677381Y-14938381D01*
X8667857Y-14957428D01*
X8658333Y-14966952D01*
X8639286Y-14976476D01*
X8582143Y-14976476D01*
X8563095Y-14966952D01*
X8553571Y-14957428D01*
X8763095Y-14957428D02*
X8772619Y-14966952D01*
X8763095Y-14976476D01*
X8753571Y-14966952D01*
X8763095Y-14957428D01*
X8763095Y-14976476D01*
X8867857Y-14976476D02*
X8905952Y-14976476D01*
X8925000Y-14966952D01*
X8934524Y-14957428D01*
X8953571Y-14928857D01*
X8963095Y-14890762D01*
X8963095Y-14814571D01*
X8953571Y-14795524D01*
X8944048Y-14786000D01*
X8925000Y-14776476D01*
X8886905Y-14776476D01*
X8867857Y-14786000D01*
X8858333Y-14795524D01*
X8848810Y-14814571D01*
X8848810Y-14862190D01*
X8858333Y-14881238D01*
X8867857Y-14890762D01*
X8886905Y-14900286D01*
X8925000Y-14900286D01*
X8944048Y-14890762D01*
X8953571Y-14881238D01*
X8963095Y-14862190D01*
X9077381Y-14862190D02*
X9058333Y-14852667D01*
X9048810Y-14843143D01*
X9039286Y-14824095D01*
X9039286Y-14814571D01*
X9048810Y-14795524D01*
X9058333Y-14786000D01*
X9077381Y-14776476D01*
X9115476Y-14776476D01*
X9134524Y-14786000D01*
X9144048Y-14795524D01*
X9153571Y-14814571D01*
X9153571Y-14824095D01*
X9144048Y-14843143D01*
X9134524Y-14852667D01*
X9115476Y-14862190D01*
X9077381Y-14862190D01*
X9058333Y-14871714D01*
X9048810Y-14881238D01*
X9039286Y-14900286D01*
X9039286Y-14938381D01*
X9048810Y-14957428D01*
X9058333Y-14966952D01*
X9077381Y-14976476D01*
X9115476Y-14976476D01*
X9134524Y-14966952D01*
X9144048Y-14957428D01*
X9153571Y-14938381D01*
X9153571Y-14900286D01*
X9144048Y-14881238D01*
X9134524Y-14871714D01*
X9115476Y-14862190D01*
X9267857Y-14862190D02*
X9248810Y-14852667D01*
X9239286Y-14843143D01*
X9229762Y-14824095D01*
X9229762Y-14814571D01*
X9239286Y-14795524D01*
X9248810Y-14786000D01*
X9267857Y-14776476D01*
X9305952Y-14776476D01*
X9325000Y-14786000D01*
X9334524Y-14795524D01*
X9344048Y-14814571D01*
X9344048Y-14824095D01*
X9334524Y-14843143D01*
X9325000Y-14852667D01*
X9305952Y-14862190D01*
X9267857Y-14862190D01*
X9248810Y-14871714D01*
X9239286Y-14881238D01*
X9229762Y-14900286D01*
X9229762Y-14938381D01*
X9239286Y-14957428D01*
X9248810Y-14966952D01*
X9267857Y-14976476D01*
X9305952Y-14976476D01*
X9325000Y-14966952D01*
X9334524Y-14957428D01*
X9344048Y-14938381D01*
X9344048Y-14900286D01*
X9334524Y-14881238D01*
X9325000Y-14871714D01*
X9305952Y-14862190D01*
X9429762Y-14976476D02*
X9429762Y-14843143D01*
X9429762Y-14862190D02*
X9439286Y-14852667D01*
X9458333Y-14843143D01*
X9486905Y-14843143D01*
X9505952Y-14852667D01*
X9515476Y-14871714D01*
X9515476Y-14976476D01*
X9515476Y-14871714D02*
X9525000Y-14852667D01*
X9544048Y-14843143D01*
X9572619Y-14843143D01*
X9591667Y-14852667D01*
X9601190Y-14871714D01*
X9601190Y-14976476D01*
X9696429Y-14976476D02*
X9696429Y-14843143D01*
X9696429Y-14862190D02*
X9705952Y-14852667D01*
X9725000Y-14843143D01*
X9753571Y-14843143D01*
X9772619Y-14852667D01*
X9782143Y-14871714D01*
X9782143Y-14976476D01*
X9782143Y-14871714D02*
X9791667Y-14852667D01*
X9810714Y-14843143D01*
X9839286Y-14843143D01*
X9858333Y-14852667D01*
X9867857Y-14871714D01*
X9867857Y-14976476D01*
X10258333Y-14766952D02*
X10086905Y-15024095D01*
X10515476Y-14776476D02*
X10534524Y-14776476D01*
X10553571Y-14786000D01*
X10563095Y-14795524D01*
X10572619Y-14814571D01*
X10582143Y-14852667D01*
X10582143Y-14900286D01*
X10572619Y-14938381D01*
X10563095Y-14957428D01*
X10553571Y-14966952D01*
X10534524Y-14976476D01*
X10515476Y-14976476D01*
X10496429Y-14966952D01*
X10486905Y-14957428D01*
X10477381Y-14938381D01*
X10467857Y-14900286D01*
X10467857Y-14852667D01*
X10477381Y-14814571D01*
X10486905Y-14795524D01*
X10496429Y-14786000D01*
X10515476Y-14776476D01*
X10667857Y-14957428D02*
X10677381Y-14966952D01*
X10667857Y-14976476D01*
X10658333Y-14966952D01*
X10667857Y-14957428D01*
X10667857Y-14976476D01*
X10867857Y-14976476D02*
X10753571Y-14976476D01*
X10810714Y-14976476D02*
X10810714Y-14776476D01*
X10791667Y-14805048D01*
X10772619Y-14824095D01*
X10753571Y-14833619D01*
X11048810Y-14776476D02*
X10953571Y-14776476D01*
X10944048Y-14871714D01*
X10953571Y-14862190D01*
X10972619Y-14852667D01*
X11020238Y-14852667D01*
X11039286Y-14862190D01*
X11048810Y-14871714D01*
X11058333Y-14890762D01*
X11058333Y-14938381D01*
X11048810Y-14957428D01*
X11039286Y-14966952D01*
X11020238Y-14976476D01*
X10972619Y-14976476D01*
X10953571Y-14966952D01*
X10944048Y-14957428D01*
X11125000Y-14776476D02*
X11258333Y-14776476D01*
X11172619Y-14976476D01*
X11372619Y-14776476D02*
X11391667Y-14776476D01*
X11410714Y-14786000D01*
X11420238Y-14795524D01*
X11429762Y-14814571D01*
X11439286Y-14852667D01*
X11439286Y-14900286D01*
X11429762Y-14938381D01*
X11420238Y-14957428D01*
X11410714Y-14966952D01*
X11391667Y-14976476D01*
X11372619Y-14976476D01*
X11353571Y-14966952D01*
X11344048Y-14957428D01*
X11334524Y-14938381D01*
X11325000Y-14900286D01*
X11325000Y-14852667D01*
X11334524Y-14814571D01*
X11344048Y-14795524D01*
X11353571Y-14786000D01*
X11372619Y-14776476D01*
X11515476Y-14776476D02*
X11515476Y-14814571D01*
X11591667Y-14776476D02*
X11591667Y-14814571D01*
X11886905Y-15052667D02*
X11877381Y-15043143D01*
X11858333Y-15014571D01*
X11848809Y-14995524D01*
X11839286Y-14966952D01*
X11829762Y-14919333D01*
X11829762Y-14881238D01*
X11839286Y-14833619D01*
X11848809Y-14805048D01*
X11858333Y-14786000D01*
X11877381Y-14757428D01*
X11886905Y-14747905D01*
X11944048Y-14776476D02*
X12077381Y-14776476D01*
X11991667Y-14976476D01*
X12305952Y-14976476D02*
X12305952Y-14776476D01*
X12391667Y-14976476D02*
X12391667Y-14871714D01*
X12382143Y-14852667D01*
X12363095Y-14843143D01*
X12334524Y-14843143D01*
X12315476Y-14852667D01*
X12305952Y-14862190D01*
X12515476Y-14976476D02*
X12496428Y-14966952D01*
X12486905Y-14957428D01*
X12477381Y-14938381D01*
X12477381Y-14881238D01*
X12486905Y-14862190D01*
X12496428Y-14852667D01*
X12515476Y-14843143D01*
X12544048Y-14843143D01*
X12563095Y-14852667D01*
X12572619Y-14862190D01*
X12582143Y-14881238D01*
X12582143Y-14938381D01*
X12572619Y-14957428D01*
X12563095Y-14966952D01*
X12544048Y-14976476D01*
X12515476Y-14976476D01*
X12696428Y-14976476D02*
X12677381Y-14966952D01*
X12667857Y-14947905D01*
X12667857Y-14776476D01*
X12848809Y-14966952D02*
X12829762Y-14976476D01*
X12791667Y-14976476D01*
X12772619Y-14966952D01*
X12763095Y-14947905D01*
X12763095Y-14871714D01*
X12772619Y-14852667D01*
X12791667Y-14843143D01*
X12829762Y-14843143D01*
X12848809Y-14852667D01*
X12858333Y-14871714D01*
X12858333Y-14890762D01*
X12763095Y-14909809D01*
X12934524Y-14966952D02*
X12953571Y-14976476D01*
X12991667Y-14976476D01*
X13010714Y-14966952D01*
X13020238Y-14947905D01*
X13020238Y-14938381D01*
X13010714Y-14919333D01*
X12991667Y-14909809D01*
X12963095Y-14909809D01*
X12944048Y-14900286D01*
X12934524Y-14881238D01*
X12934524Y-14871714D01*
X12944048Y-14852667D01*
X12963095Y-14843143D01*
X12991667Y-14843143D01*
X13010714Y-14852667D01*
X13086905Y-15052667D02*
X13096428Y-15043143D01*
X13115476Y-15014571D01*
X13125000Y-14995524D01*
X13134524Y-14966952D01*
X13144048Y-14919333D01*
X13144048Y-14881238D01*
X13134524Y-14833619D01*
X13125000Y-14805048D01*
X13115476Y-14786000D01*
X13096428Y-14757428D01*
X13086905Y-14747905D01*
X13448809Y-15052667D02*
X13439286Y-15043143D01*
X13420238Y-15014571D01*
X13410714Y-14995524D01*
X13401190Y-14966952D01*
X13391667Y-14919333D01*
X13391667Y-14881238D01*
X13401190Y-14833619D01*
X13410714Y-14805048D01*
X13420238Y-14786000D01*
X13439286Y-14757428D01*
X13448809Y-14747905D01*
X13525000Y-14843143D02*
X13525000Y-14976476D01*
X13525000Y-14862190D02*
X13534524Y-14852667D01*
X13553571Y-14843143D01*
X13582143Y-14843143D01*
X13601190Y-14852667D01*
X13610714Y-14871714D01*
X13610714Y-14976476D01*
X13734524Y-14976476D02*
X13715476Y-14966952D01*
X13705952Y-14957428D01*
X13696428Y-14938381D01*
X13696428Y-14881238D01*
X13705952Y-14862190D01*
X13715476Y-14852667D01*
X13734524Y-14843143D01*
X13763095Y-14843143D01*
X13782143Y-14852667D01*
X13791667Y-14862190D01*
X13801190Y-14881238D01*
X13801190Y-14938381D01*
X13791667Y-14957428D01*
X13782143Y-14966952D01*
X13763095Y-14976476D01*
X13734524Y-14976476D01*
X13858333Y-14843143D02*
X13934524Y-14843143D01*
X13886905Y-14776476D02*
X13886905Y-14947905D01*
X13896428Y-14966952D01*
X13915476Y-14976476D01*
X13934524Y-14976476D01*
X14153571Y-14843143D02*
X14153571Y-15043143D01*
X14153571Y-14852667D02*
X14172619Y-14843143D01*
X14210714Y-14843143D01*
X14229762Y-14852667D01*
X14239286Y-14862190D01*
X14248809Y-14881238D01*
X14248809Y-14938381D01*
X14239286Y-14957428D01*
X14229762Y-14966952D01*
X14210714Y-14976476D01*
X14172619Y-14976476D01*
X14153571Y-14966952D01*
X14363095Y-14976476D02*
X14344048Y-14966952D01*
X14334524Y-14947905D01*
X14334524Y-14776476D01*
X14525000Y-14976476D02*
X14525000Y-14871714D01*
X14515476Y-14852667D01*
X14496428Y-14843143D01*
X14458333Y-14843143D01*
X14439286Y-14852667D01*
X14525000Y-14966952D02*
X14505952Y-14976476D01*
X14458333Y-14976476D01*
X14439286Y-14966952D01*
X14429762Y-14947905D01*
X14429762Y-14928857D01*
X14439286Y-14909809D01*
X14458333Y-14900286D01*
X14505952Y-14900286D01*
X14525000Y-14890762D01*
X14591667Y-14843143D02*
X14667857Y-14843143D01*
X14620238Y-14776476D02*
X14620238Y-14947905D01*
X14629762Y-14966952D01*
X14648809Y-14976476D01*
X14667857Y-14976476D01*
X14810714Y-14966952D02*
X14791667Y-14976476D01*
X14753571Y-14976476D01*
X14734524Y-14966952D01*
X14725000Y-14947905D01*
X14725000Y-14871714D01*
X14734524Y-14852667D01*
X14753571Y-14843143D01*
X14791667Y-14843143D01*
X14810714Y-14852667D01*
X14820238Y-14871714D01*
X14820238Y-14890762D01*
X14725000Y-14909809D01*
X14991667Y-14976476D02*
X14991667Y-14776476D01*
X14991667Y-14966952D02*
X14972619Y-14976476D01*
X14934524Y-14976476D01*
X14915476Y-14966952D01*
X14905952Y-14957428D01*
X14896428Y-14938381D01*
X14896428Y-14881238D01*
X14905952Y-14862190D01*
X14915476Y-14852667D01*
X14934524Y-14843143D01*
X14972619Y-14843143D01*
X14991667Y-14852667D01*
X15067857Y-15052667D02*
X15077381Y-15043143D01*
X15096428Y-15014571D01*
X15105952Y-14995524D01*
X15115476Y-14966952D01*
X15125000Y-14919333D01*
X15125000Y-14881238D01*
X15115476Y-14833619D01*
X15105952Y-14805048D01*
X15096428Y-14786000D01*
X15077381Y-14757428D01*
X15067857Y-14747905D01*
M02*
