M48
; DRILL file {KiCad (6.0.0)} date Sun May 21 00:13:48 2023
; FORMAT={-:-/ absolute / metric / decimal}
; #@! TF.CreationDate,2023-05-21T00:13:48-05:00
; #@! TF.GenerationSoftware,Kicad,Pcbnew,(6.0.0)
; #@! TF.FileFunction,NonPlated,1,2,NPTH
FMAT,2
METRIC
; #@! TA.AperFunction,NonPlated,NPTH,ComponentDrill
T1C0.650
; #@! TA.AperFunction,NonPlated,NPTH,ComponentDrill
T2C1.750
; #@! TA.AperFunction,NonPlated,NPTH,ComponentDrill
T3C3.988
%
G90
G05
T1
X88.595Y-79.351
X88.595Y-85.131
T2
X229.145Y-32.161
X229.145Y-42.321
X229.145Y-62.161
X229.145Y-72.321
X229.145Y-92.161
X229.145Y-102.321
X229.145Y-122.161
X229.145Y-132.321
X259.145Y-58.111
X259.145Y-68.271
X259.145Y-77.161
X259.145Y-87.321
X259.145Y-96.211
X259.145Y-106.371
T3
X229.145Y-37.241
X229.145Y-67.241
X229.145Y-97.241
X229.145Y-127.241
X259.145Y-63.191
X259.145Y-82.241
X259.145Y-101.291
T0
M30
